<?xml version="1.0" encoding="utf-8"?>
<!-- Generator: Adobe Illustrator 21.0.0, SVG Export Plug-In . SVG Version: 6.00 Build 0)  -->
<svg version="1.2" baseProfile="tiny" id="图层_1"
	 xmlns="http://www.w3.org/2000/svg" xmlns:xlink="http://www.w3.org/1999/xlink" x="0px" y="0px" viewBox="0 0 972 554.3"
	 overflow="visible" xml:space="preserve">
<rect x="102.5" y="146.2" fill="none" stroke="#EFEFEF" stroke-width="0.3" stroke-miterlimit="10" width="29.6" height="39.3"/>
<rect id="XMLID_478_" x="679.4" y="386.9" fill="none" stroke="#EFEFEF" stroke-width="0.3" stroke-miterlimit="10" width="19.5" height="31.2"/>
<rect id="XMLID_477_" x="699.9" y="386.9" fill="none" stroke="#EFEFEF" stroke-width="0.3" stroke-miterlimit="10" width="18.8" height="48.9"/>
<rect id="XMLID_476_" x="719.4" y="386.9" fill="none" stroke="#EFEFEF" stroke-width="0.3" stroke-miterlimit="10" width="18.8" height="48.9"/>
<rect id="XMLID_475_" x="739.2" y="386.9" fill="none" stroke="#EFEFEF" stroke-width="0.3" stroke-miterlimit="10" width="18.8" height="48.9"/>
<rect id="XMLID_474_" x="778.2" y="386.9" fill="none" stroke="#EFEFEF" stroke-width="0.3" stroke-miterlimit="10" width="18.8" height="33.6"/>
<polygon id="XMLID_473_" fill="none" stroke="#EFEFEF" stroke-width="0.3" stroke-miterlimit="10" points="777.4,420.4 758.6,420.4 
	758.6,389.7 764.6,389.7 764.6,386.9 777.4,386.9 "/>
<polygon fill="none" stroke="#EFEFEF" stroke-width="0.3" stroke-miterlimit="10" points="824.2,374.8 822.5,374.8 797.8,374.8 
	797.8,383.2 797.8,420.4 822.5,420.4 822.5,383.2 824.2,383.2 "/>
<polygon id="XMLID_472_" fill="none" stroke="#EFEFEF" stroke-width="0.3" stroke-miterlimit="10" points="679.4,419.1 699.1,419.1 
	699.1,436.7 717.6,436.7 717.6,444.6 711.2,444.6 711.2,462.3 691.6,462.3 691.6,447 679.4,447 "/>
<rect id="XMLID_471_" x="758.7" y="436.7" fill="none" stroke="#EFEFEF" stroke-width="0.3" stroke-miterlimit="10" width="38.2" height="25.6"/>
<rect id="XMLID_470_" x="797.8" y="436.7" fill="none" stroke="#EFEFEF" stroke-width="0.3" stroke-miterlimit="10" width="27" height="25.6"/>
<rect id="XMLID_469_" x="581.9" y="386.9" fill="none" stroke="#EFEFEF" stroke-width="0.3" stroke-miterlimit="10" width="28.2" height="32.5"/>
<rect id="XMLID_468_" x="562" y="386.9" fill="none" stroke="#EFEFEF" stroke-width="0.3" stroke-miterlimit="10" width="18.9" height="32.5"/>
<rect id="XMLID_467_" x="513.9" y="386.9" fill="none" stroke="#EFEFEF" stroke-width="0.3" stroke-miterlimit="10" width="28.6" height="32.5"/>
<rect id="XMLID_466_" x="445.5" y="386.9" fill="none" stroke="#EFEFEF" stroke-width="0.3" stroke-miterlimit="10" width="17.6" height="42"/>
<rect id="XMLID_465_" x="426" y="386.9" fill="none" stroke="#EFEFEF" stroke-width="0.3" stroke-miterlimit="10" width="18.6" height="42"/>
<rect id="XMLID_464_" x="406.2" y="386.9" fill="none" stroke="#EFEFEF" stroke-width="0.3" stroke-miterlimit="10" width="18.6" height="42"/>
<polygon id="XMLID_463_" fill="none" stroke="#EFEFEF" stroke-width="0.3" stroke-miterlimit="10" points="561.1,419.5 543.5,419.5 
	543.5,386.9 556,386.9 556,388.8 561.1,388.8 "/>
<polygon id="XMLID_462_" fill="none" stroke="#EFEFEF" stroke-width="0.3" stroke-miterlimit="10" points="504.1,386.9 464.1,386.9 
	464.1,388.8 464,388.8 464,428.9 483.7,428.9 483.7,404 504.1,404 "/>
<polygon fill="none" stroke="#EFEFEF" stroke-width="0.3" stroke-miterlimit="10" points="391.7,386.9 390.5,386.9 378.8,386.9 
	378.8,402.2 390.5,402.2 390.5,416.7 366.3,416.7 366.3,428.9 390.5,428.9 391.7,428.9 405.4,428.9 405.4,386.9 "/>
<polygon id="XMLID_461_" fill="none" stroke="#EFEFEF" stroke-width="0.3" stroke-miterlimit="10" points="406.2,429.7 406.2,449.8 
	411.2,449.8 411.2,470.8 406.2,470.8 406.2,483.7 424.9,483.7 424.9,429.7 "/>
<polygon id="XMLID_460_" fill="none" stroke="#EFEFEF" stroke-width="0.3" stroke-miterlimit="10" points="444.5,429.7 444.5,449.8 
	439.5,449.8 439.5,470.8 444.5,470.8 444.5,483.7 425.8,483.7 425.8,429.7 "/>
<polygon id="XMLID_459_" fill="none" stroke="#EFEFEF" stroke-width="0.3" stroke-miterlimit="10" points="483.7,429.7 466,429.7 
	466,429.8 445.5,429.8 445.5,484.7 470,484.7 470,450.7 483.7,450.7 "/>
<polygon id="XMLID_458_" fill="none" stroke="#EFEFEF" stroke-width="0.3" stroke-miterlimit="10" points="522.9,424.1 522.9,420.4 
	484.6,420.4 484.6,440.1 513.8,440.1 513.8,462.3 522.9,462.3 "/>
<polygon id="XMLID_457_" fill="none" stroke="#EFEFEF" stroke-width="0.3" stroke-miterlimit="10" points="523.8,420.4 523.8,438.2 
	528,438.2 528,462.3 542.5,462.3 542.5,420.4 "/>
<rect id="XMLID_456_" x="543.4" y="420.4" fill="none" stroke="#EFEFEF" stroke-width="0.3" stroke-miterlimit="10" width="66.9" height="21.5"/>
<polygon id="XMLID_455_" fill="none" stroke="#EFEFEF" stroke-width="0.3" stroke-miterlimit="10" points="374.1,429.8 405.4,429.8 
	405.4,481.9 397.7,481.9 "/>
<polygon id="XMLID_454_" fill="none" stroke="#EFEFEF" stroke-width="0.3" stroke-miterlimit="10" points="787.5,244.3 796.9,244.3 
	796.9,296.3 771.6,296.3 771.6,290.4 775.7,290.4 775.7,256.3 787.7,256.3 "/>
<polygon id="XMLID_453_" fill="none" stroke="#EFEFEF" stroke-width="0.3" stroke-miterlimit="10" points="797.8,244.3 816.5,244.3 
	816.5,297.4 806.6,297.4 806.6,294.5 797.8,294.5 "/>
<rect id="XMLID_452_" x="817.5" y="244.3" fill="none" stroke="#EFEFEF" stroke-width="0.3" stroke-miterlimit="10" width="54.9" height="17.7"/>
<rect id="XMLID_451_" x="817.5" y="224.7" fill="none" stroke="#EFEFEF" stroke-width="0.3" stroke-miterlimit="10" width="54.9" height="18.6"/>
<rect id="XMLID_450_" x="753.2" y="224.7" fill="none" stroke="#EFEFEF" stroke-width="0.3" stroke-miterlimit="10" width="63.3" height="18.6"/>
<rect id="XMLID_449_" x="753.2" y="205.2" fill="none" stroke="#EFEFEF" stroke-width="0.3" stroke-miterlimit="10" width="57.3" height="18.6"/>
<polygon id="XMLID_448_" fill="none" stroke="#EFEFEF" stroke-width="0.3" stroke-miterlimit="10" points="798.7,184.7 798.7,198.6 
	789.9,198.6 789.9,184.7 753.2,184.7 753.2,204.1 810.5,204.1 810.5,184.7 "/>
<polygon id="XMLID_447_" fill="none" stroke="#EFEFEF" stroke-width="0.3" stroke-miterlimit="10" points="872.4,212.6 830.5,212.6 
	830.5,156.6 811.4,156.6 811.4,223.7 830.5,223.7 830.5,223.7 872.4,223.7 "/>
<rect id="XMLID_446_" x="753.2" y="156.6" fill="none" stroke="#EFEFEF" stroke-width="0.3" stroke-miterlimit="10" width="57.3" height="27"/>
<polygon id="XMLID_445_" fill="none" stroke="#EFEFEF" stroke-width="0.3" stroke-miterlimit="10" points="783.9,101.7 783.9,116 
	786.9,116 786.9,144.5 810.5,144.5 810.5,101.7 "/>
<rect id="XMLID_444_" x="811.4" y="101.7" fill="none" stroke="#EFEFEF" stroke-width="0.3" stroke-miterlimit="10" width="20" height="54.1"/>
<rect id="XMLID_443_" x="832.3" y="101.7" fill="none" stroke="#EFEFEF" stroke-width="0.3" stroke-miterlimit="10" width="19.1" height="59.7"/>
<rect id="XMLID_442_" x="852.3" y="101.7" fill="none" stroke="#EFEFEF" stroke-width="0.3" stroke-miterlimit="10" width="20" height="59.7"/>
<polygon id="XMLID_441_" fill="none" stroke="#EFEFEF" stroke-width="0.3" stroke-miterlimit="10" points="716.7,145.3 719.5,145.3 
	719.5,106.3 700,106.3 700,155.8 716.7,155.8 "/>
<rect id="XMLID_440_" x="684.1" y="106.3" fill="none" stroke="#EFEFEF" stroke-width="0.3" stroke-miterlimit="10" width="14.9" height="49.4"/>
<rect id="XMLID_439_" x="680.4" y="150" fill="none" stroke="#EFEFEF" stroke-width="0.3" stroke-miterlimit="10" width="7.9" height="5.6"/>
<rect id="XMLID_438_" x="660.8" y="106.3" fill="none" stroke="#EFEFEF" stroke-width="0.3" stroke-miterlimit="10" width="18.6" height="49.4"/>
<rect id="XMLID_437_" x="641.2" y="106.3" fill="none" stroke="#EFEFEF" stroke-width="0.3" stroke-miterlimit="10" width="18.6" height="49.4"/>
<polygon id="XMLID_436_" fill="none" stroke="#EFEFEF" stroke-width="0.3" stroke-miterlimit="10" points="634.5,152.8 640.3,152.8 
	640.3,106.3 617.8,106.3 617.8,155.8 634.5,155.8 "/>
<polygon id="XMLID_435_" fill="none" stroke="#EFEFEF" stroke-width="0.3" stroke-miterlimit="10" points="595,133.3 595,106.3 
	562.9,106.3 562.9,155.8 598.7,155.8 598.7,133.3 "/>
<rect id="XMLID_434_" x="543.4" y="106.3" fill="none" stroke="#EFEFEF" stroke-width="0.3" stroke-miterlimit="10" width="18.6" height="49.4"/>
<rect id="XMLID_433_" x="523.8" y="106.3" fill="none" stroke="#EFEFEF" stroke-width="0.3" stroke-miterlimit="10" width="18.6" height="49.4"/>
<rect id="XMLID_432_" x="493.9" y="119.3" fill="none" stroke="#EFEFEF" stroke-width="0.3" stroke-miterlimit="10" width="28.9" height="36.3"/>
<rect id="XMLID_431_" x="465.1" y="106.3" fill="none" stroke="#EFEFEF" stroke-width="0.3" stroke-miterlimit="10" width="18.6" height="49.4"/>
<polygon id="XMLID_430_" fill="none" stroke="#EFEFEF" stroke-width="0.3" stroke-miterlimit="10" points="464.1,106.3 449.2,106.3 
	449.2,132.8 445.5,132.8 445.5,155.8 455.3,155.8 455.3,155.8 464.1,155.8 "/>
<rect id="XMLID_429_" x="425.8" y="106.3" fill="none" stroke="#EFEFEF" stroke-width="0.3" stroke-miterlimit="10" width="18.6" height="49.4"/>
<rect id="XMLID_428_" x="406.3" y="106.3" fill="none" stroke="#EFEFEF" stroke-width="0.3" stroke-miterlimit="10" width="18.6" height="49.4"/>
<rect id="XMLID_427_" x="386.7" y="106.3" fill="none" stroke="#EFEFEF" stroke-width="0.3" stroke-miterlimit="10" width="18.6" height="49.4"/>
<polygon id="XMLID_426_" fill="none" stroke="#EFEFEF" stroke-width="0.3" stroke-miterlimit="10" points="385.7,106.3 372.7,106.3 
	372.7,139.7 368.1,139.7 368.1,155.8 379.1,155.8 379.1,155.8 385.7,155.8 "/>
<path id="XMLID_425_" fill="none" stroke="#EFEFEF" stroke-width="0.3" stroke-miterlimit="10" d="M351.3,106.3h-18.2v4.7h-6v52
	l5.3,7.6c6.3-7,18.5-16.9,18.5-16.9v-0.2h0.3v-47.2H351.3z"/>
<polygon id="XMLID_424_" fill="none" stroke="#EFEFEF" stroke-width="0.3" stroke-miterlimit="10" points="315.9,110.9 288.9,110.9 
	288.9,144.9 304.3,144.9 304.3,150 315.9,150 315.9,144.9 315.9,144.9 "/>
<rect id="XMLID_423_" x="269.3" y="110.9" fill="none" stroke="#EFEFEF" stroke-width="0.3" stroke-miterlimit="10" width="18.6" height="39.1"/>
<rect id="XMLID_422_" x="248.9" y="110.9" fill="none" stroke="#EFEFEF" stroke-width="0.3" stroke-miterlimit="10" width="19.5" height="51.8"/>
<polygon id="XMLID_421_" fill="none" stroke="#EFEFEF" stroke-width="0.3" stroke-miterlimit="10" points="244.4,163.6 288,163.6 
	288,184.7 256.1,196.3 "/>
<polygon id="XMLID_420_" fill="none" stroke="#EFEFEF" stroke-width="0.3" stroke-miterlimit="10" points="288.9,163.6 326.4,163.6 
	331.7,171.3 323.9,180.5 321.8,179.1 317.7,184.5 288.9,184.5 "/>
<path id="XMLID_419_" fill="none" stroke="#EFEFEF" stroke-width="0.3" stroke-miterlimit="10" d="M256.5,197.1l32.1-11.6h31.8
	c0,0-8.2,11.6-12.4,19.9l-14.9,0.2l-30.4,10.8l-3.2-8.8l0.9-0.3L256.5,197.1z"/>
<path id="XMLID_418_" fill="none" stroke="#EFEFEF" stroke-width="0.3" stroke-miterlimit="10" d="M263.2,217.6l29.8-11.2h14.1
	c0,0-5.6,10.8-11,25.6c0,0-2.6,8-3.8,14.1c0,0-13-2.8-19.9-2.6L263.2,217.6z"/>
<path id="XMLID_417_" fill="none" stroke="#EFEFEF" stroke-width="0.3" stroke-miterlimit="10" d="M444.6,184.5h-40.1v1.9H399v-1.9
	c0,0-4.7,0.3-8.5,4.2c-3.8,3.8-6,15.5-6,15.5h60.1V184.5z"/>
<path id="XMLID_416_" fill="none" stroke="#EFEFEF" stroke-width="0.3" stroke-miterlimit="10" d="M444.6,205.1v18.6h-68.1
	c0,0,6.8-14.6,7.6-18.6H444.6z"/>
<polygon id="XMLID_415_" fill="none" stroke="#EFEFEF" stroke-width="0.3" stroke-miterlimit="10" points="491.6,199.1 476.2,199.1 
	476.2,202.8 464.1,202.8 464.1,184.5 445.5,184.5 445.5,224.6 436.1,224.6 436.1,244.3 454.4,244.3 454.4,244.3 491.6,244.3 "/>
<polygon id="XMLID_414_" fill="none" stroke="#EFEFEF" stroke-width="0.3" stroke-miterlimit="10" points="522.9,184.5 498.2,184.5 
	498.2,187.3 492.6,187.3 492.6,244.3 502.2,244.3 502.2,244.3 522.9,244.3 "/>
<rect id="XMLID_413_" x="523.8" y="184.5" fill="none" stroke="#EFEFEF" stroke-width="0.3" stroke-miterlimit="10" width="18.6" height="59.7"/>
<rect id="XMLID_412_" x="543.4" y="184.5" fill="none" stroke="#EFEFEF" stroke-width="0.3" stroke-miterlimit="10" width="18.6" height="59.7"/>
<rect id="XMLID_411_" x="562.9" y="184.5" fill="none" stroke="#EFEFEF" stroke-width="0.3" stroke-miterlimit="10" width="18.6" height="59.7"/>
<rect id="XMLID_410_" x="582.9" y="245.2" fill="none" stroke="#EFEFEF" stroke-width="0.3" stroke-miterlimit="10" width="15.8" height="51.2"/>
<rect id="XMLID_409_" x="601.2" y="245.2" fill="none" stroke="#EFEFEF" stroke-width="0.3" stroke-miterlimit="10" width="19.4" height="51.2"/>
<rect id="XMLID_408_" x="582.5" y="184.7" fill="none" stroke="#EFEFEF" stroke-width="0.3" stroke-miterlimit="10" width="58.8" height="19.4"/>
<rect id="XMLID_407_" x="582.5" y="205.1" fill="none" stroke="#EFEFEF" stroke-width="0.3" stroke-miterlimit="10" width="58.8" height="18.6"/>
<rect id="XMLID_406_" x="582.5" y="224.6" fill="none" stroke="#EFEFEF" stroke-width="0.3" stroke-miterlimit="10" width="58.8" height="19.5"/>
<polygon id="XMLID_405_" fill="none" stroke="#EFEFEF" stroke-width="0.3" stroke-miterlimit="10" points="639.4,283.4 639.4,277.1 
	641.2,277.1 641.2,245.2 621.7,245.2 621.7,296.3 641.2,296.3 641.2,283.4 "/>
<polygon id="XMLID_404_" fill="none" stroke="#EFEFEF" stroke-width="0.3" stroke-miterlimit="10" points="563,245.2 563,294.2 
	569.5,294.2 569.5,296.3 582,296.3 582,245.2 "/>
<rect id="XMLID_403_" x="543.4" y="245.2" fill="none" stroke="#EFEFEF" stroke-width="0.3" stroke-miterlimit="10" width="18.6" height="51.2"/>
<polygon id="XMLID_402_" fill="none" stroke="#EFEFEF" stroke-width="0.3" stroke-miterlimit="10" points="529.9,245.2 529.9,264.7 
	522.9,264.7 522.9,296.3 542.5,296.3 542.5,245.2 "/>
<polygon id="XMLID_401_" fill="none" stroke="#EFEFEF" stroke-width="0.3" stroke-miterlimit="10" points="483.7,245.2 464.6,245.2 
	464.6,294.2 464.6,294.2 464.6,296.3 478.2,296.3 478.2,294.2 483.7,294.2 "/>
<rect id="XMLID_400_" x="445.5" y="245.2" fill="none" stroke="#EFEFEF" stroke-width="0.3" stroke-miterlimit="10" width="18.2" height="51.2"/>
<rect id="XMLID_399_" x="426.1" y="245.2" fill="none" stroke="#EFEFEF" stroke-width="0.3" stroke-miterlimit="10" width="18.5" height="51.2"/>
<rect id="XMLID_398_" x="406.3" y="245.2" fill="none" stroke="#EFEFEF" stroke-width="0.3" stroke-miterlimit="10" width="18.5" height="51.2"/>
<rect id="XMLID_397_" x="386.7" y="263.8" fill="none" stroke="#EFEFEF" stroke-width="0.3" stroke-miterlimit="10" width="18.5" height="32.5"/>
<path id="XMLID_396_" fill="none" stroke="#EFEFEF" stroke-width="0.3" stroke-miterlimit="10" d="M405.4,245.2h-41.6
	c0,0-8.7,12.9-13.4,17.7h55V245.2z"/>
<path id="XMLID_395_" fill="none" stroke="#EFEFEF" stroke-width="0.3" stroke-miterlimit="10" d="M349.6,263.8h36.3v32.5h-29.8
	c0,0-6-11.3-8.7-13.7c0,0-6.6-8.6-7.5-8.8C340,273.8,349.2,264.6,349.6,263.8z"/>
<polygon id="XMLID_394_" fill="none" stroke="#EFEFEF" stroke-width="0.3" stroke-miterlimit="10" points="736.8,244.3 766.6,244.3 
	766.6,255.4 758.7,255.4 758.7,270.8 736.7,270.8 "/>
<rect id="XMLID_393_" x="741.3" y="271.7" fill="none" stroke="#EFEFEF" stroke-width="0.3" stroke-miterlimit="10" width="17.4" height="24.6"/>
<polygon id="XMLID_392_" fill="none" stroke="#EFEFEF" stroke-width="0.3" stroke-miterlimit="10" points="718.6,244.3 735.7,244.3 
	735.7,271.7 740.3,271.7 740.3,296.3 718.6,296.3 "/>
<rect id="XMLID_391_" x="817.5" y="262.9" fill="none" stroke="#EFEFEF" stroke-width="0.3" stroke-miterlimit="10" width="18.6" height="34.6"/>
<path id="XMLID_390_" fill="none" stroke="#EFEFEF" stroke-width="0.3" stroke-miterlimit="10" d="M872.3,263.1H837v34.2h8.8
	c0,0,12.1,0,20.9-11.4C866.9,285.8,873.6,278.6,872.3,263.1z"/>
<polygon id="XMLID_389_" fill="none" stroke="#EFEFEF" stroke-width="0.3" stroke-miterlimit="10" points="227,430.6 239.1,435.3 
	229.2,467.2 229.2,483.8 210.6,483.8 210.6,461 "/>
<path id="XMLID_388_" fill="none" stroke="#EFEFEF" stroke-width="0.3" stroke-miterlimit="10" d="M240.1,435.6
	c0,0,10.4,2.9,12.1,2.9l-4.3,25.6v19.6H230v-16.4L240.1,435.6z"/>
<path id="XMLID_387_" fill="none" stroke="#EFEFEF" stroke-width="0.3" stroke-miterlimit="10" d="M213.3,422.9
	c0,0,10.8,6.8,12.9,7.2l-16.6,30.7v22.9H191v-28.5L213.3,422.9z"/>
<path id="XMLID_386_" fill="none" stroke="#EFEFEF" stroke-width="0.3" stroke-miterlimit="10" d="M201.6,413.3
	c0,0,9.6,8.6,11.1,8.9L190.1,455v28.8h-18.6V445L201.6,413.3z"/>
<polygon id="XMLID_385_" fill="none" stroke="#EFEFEF" stroke-width="0.3" stroke-miterlimit="10" points="191.8,403.1 171.3,419.5 
	171.3,420.4 150.5,420.4 150.5,442.3 164.5,442.3 164.5,447.9 170.5,447.9 170.5,444.7 201.1,413 "/>
<path id="XMLID_384_" fill="none" stroke="#EFEFEF" stroke-width="0.3" stroke-miterlimit="10" d="M101.4,380.3H170l0.9,1.8h8.4
	c0,0,4.7,9.7,7.1,13.1l-21.1,13.9h-46.4v-9.4h-17.4L101.4,380.3L101.4,380.3z"/>
<rect id="XMLID_383_" x="101.4" y="342.1" fill="none" stroke="#EFEFEF" stroke-width="0.3" stroke-miterlimit="10" width="69" height="18.6"/>
<rect id="XMLID_382_" x="128.6" y="302" fill="none" stroke="#EFEFEF" stroke-width="0.3" stroke-miterlimit="10" width="41.9" height="22.8"/>
<rect id="XMLID_381_" x="116.5" y="224.6" fill="none" stroke="#EFEFEF" stroke-width="0.3" stroke-miterlimit="10" width="74.1" height="18.8"/>
<rect id="XMLID_380_" x="116.5" y="244.1" fill="none" stroke="#EFEFEF" stroke-width="0.3" stroke-miterlimit="10" width="74.1" height="18.8"/>
<polygon id="XMLID_379_" fill="none" stroke="#EFEFEF" stroke-width="0.3" stroke-miterlimit="10" points="183.9,291.7 116.5,291.7 
	116.5,263.7 190.6,263.7 190.6,282.1 "/>
<rect id="XMLID_378_" x="101.4" y="361.5" fill="none" stroke="#EFEFEF" stroke-width="0.3" stroke-miterlimit="10" width="69" height="16.4"/>
<polygon id="XMLID_377_" fill="none" stroke="#EFEFEF" stroke-width="0.3" stroke-miterlimit="10" points="118.7,185.5 179.1,185.5 
	190.6,217.4 190.6,218.2 185.8,218.2 185.8,223.7 118.7,223.7 "/>
<polygon id="XMLID_376_" fill="none" stroke="#EFEFEF" stroke-width="0.3" stroke-miterlimit="10" points="173.8,171 170.6,170.9 
	170.6,166.4 170.6,165.1 170.6,164.5 171.5,164.5 164.6,145.5 132.7,145.5 132.6,184.5 179.1,184.5 "/>
<rect id="XMLID_375_" x="852.3" y="184.6" fill="none" stroke="#DCDDDD" stroke-width="0.3" stroke-miterlimit="10" width="12.7" height="10.7"/>
<rect id="XMLID_374_" x="823.8" y="407.8" fill="none" stroke="#EFEFEF" stroke-width="0.3" stroke-miterlimit="10" width="10.8" height="12.5"/>
<rect id="XMLID_373_" x="823.8" y="393.1" fill="none" stroke="#EFEFEF" stroke-width="0.3" stroke-miterlimit="10" width="10.8" height="12.5"/>
<rect id="XMLID_372_" x="470.9" y="451.6" fill="#FFFFFF" stroke="#DCDDDD" stroke-width="0.235" stroke-miterlimit="10" width="11.6" height="10.7"/>
<rect id="XMLID_371_" x="366.3" y="389.7" fill="none" stroke="#DCDDDD" stroke-width="0.3" stroke-miterlimit="10" width="11.6" height="12.5"/>
<rect id="XMLID_370_" x="366.3" y="403.2" fill="none" stroke="#DCDDDD" stroke-width="0.3" stroke-miterlimit="10" width="11.6" height="12.5"/>
<rect id="XMLID_369_" x="118.8" y="437.1" fill="none" stroke="#DCDDDD" stroke-width="0.3" stroke-miterlimit="10" width="13.3" height="10.7"/>
<rect id="XMLID_367_" x="642.1" y="249.3" fill="#FFFFFF" stroke="#DCDDDD" stroke-width="0.235" stroke-miterlimit="10" width="11.3" height="13.3"/>
<rect id="XMLID_365_" x="774.4" y="117" fill="none" stroke="#DCDDDD" stroke-width="0.3" stroke-miterlimit="10" width="11.6" height="10.7"/>
<rect id="XMLID_364_" x="142.6" y="448.8" fill="none" stroke="#DCDDDD" stroke-width="0.3" stroke-miterlimit="10" width="28" height="35"/>
<rect id="XMLID_363_" x="289" y="151" fill="none" stroke="#EFEFEF" stroke-width="0.3" stroke-miterlimit="10" width="10.7" height="11.6"/>
<polygon id="XMLID_362_" fill="none" stroke="#EFEFEF" stroke-width="0.3" stroke-miterlimit="10" points="293.1,464.3 321.1,464.3 
	328,476.7 328,483.8 293.1,483.8 "/>
<polygon id="XMLID_361_" fill="none" stroke="#DCDDDD" stroke-width="0.3" stroke-miterlimit="10" points="311,422.8 317.4,419.4 
	349.3,475.9 334.9,484.7 303.1,427.3 "/>
<polygon id="XMLID_359_" fill="none" stroke="#DCDDDD" stroke-width="0.3" stroke-miterlimit="10" points="165.7,144.5 180.2,139.2 
	201.4,196.7 187,202.3 "/>
<path id="XMLID_358_" fill="#C9CACA" d="M407.2,483h96.2v-21.5h106v-13.7h31.9v13.7h229.5v-20.9h4.7v-65h-10.6v-88.4l0.5-0.6
	c6.4-7.2,6.4-17.1,6.4-17.3v-167H755.3v4.6H334.1v3.8h-90L164.4,146h-62v336.6h232.1l15.4-8.4l47.7,8.2v-1.7h9.6V483L407.2,483z
	 M401.1,487l-50.6-8.8l-15.1,8.1H98.8V142.7h65l79.5-35.3h87.1v-3.8h421.4V99h123.3v170.4c0,0.5,0.1,10.8-6.9,19.1V372h10.6v72.1
	h-4.7V465H637.6v-13.7H613V465H507v21.5H403.7v-1.8h-2.5L401.1,487L401.1,487z"/>
<rect id="XMLID_357_" x="101.4" y="460.5" fill="none" stroke="#DCDDDD" stroke-width="0.3" stroke-miterlimit="10" width="30.7" height="12.1"/>
<polygon id="XMLID_356_" fill="none" stroke="#EFEFEF" stroke-width="0.3" stroke-miterlimit="10" points="375.8,224.6 367.7,244.3 
	435.2,244.3 435.2,224.6 "/>
<path id="XMLID_355_" fill="none" stroke="#EFEFEF" stroke-width="0.3" stroke-miterlimit="10" d="M254.7,429.5
	c0,0,11.6,1.8,22.1,0.8l0.8,8.7h9.4l0.1,24.3h-38L254.7,429.5z"/>
<path id="XMLID_354_" fill="none" stroke="#EFEFEF" stroke-width="0.3" stroke-miterlimit="10" d="M277.6,430.2c0,0,10.6-1,21.7-5
	l21.1,38h-32.5V438h-9.6L277.6,430.2z"/>
<g id="XMLID_348_">
	<g id="XMLID_350_">
		<path id="XMLID_353_" fill="#666666" d="M359.1,199.5c2.4-2.6,3.7-6.2,3.3-9.9c-0.7-5.9-5.3-10.6-11.2-11.2
			c-7.7-0.9-14.3,5.1-14.3,12.8c0,3.3,1.3,6.4,3.3,8.6l7.3,9.7c1.1,1.3,3.1,1.3,4,0L359.1,199.5z"/>
		<g id="XMLID_351_">
			<path id="XMLID_352_" fill="#FFFFFF" d="M348.3,184.9c0.9,0,1.5-0.7,1.5-1.5s-0.7-1.5-1.5-1.5c-0.9,0-1.5,0.7-1.5,1.5
				C346.8,184.2,347.4,184.9,348.3,184.9L348.3,184.9z M355.6,186.5h-2.2c-0.4,0-1.1,0.2-1.5,0.4l-2.2,2v-0.7c0-1.3-1.8-1.3-2,0v2.4
				l0,0l-1.8,1.8c-0.2,0.2-0.2,0.2-0.4,0.2h-1.1c-1.1,0-1.8,0.9-1.8,1.8s0.7,2,1.8,2c0,0,1.5,0,2,0s1.1,0,1.5-0.7l5.9-5.5
				c0,0,0.2,0,0.4,0c0,0,0.9,0,1.5,0s1.5-0.7,1.8-1.8C357.1,187.1,356.2,186.5,355.6,186.5L355.6,186.5z"/>
		</g>
	</g>
	<path id="XMLID_349_" fill="#FFFFFF" d="M348.3,192.9L348.3,192.9c-0.9,0-1.5-0.7-1.5-1.5v-4c0-0.9,0.7-1.5,1.5-1.5l0,0
		c0.9,0,1.5,0.7,1.5,1.5v4C349.9,192,349.2,192.9,348.3,192.9z"/>
</g>
<g id="XMLID_332_">
	<path id="XMLID_335_" fill="#666666" d="M166.6,458.5c2.4-2.6,3.7-6.2,3.3-9.9c-0.7-5.9-5.3-10.6-11.2-11.2
		c-7.7-0.9-14.3,5.1-14.3,12.8c0,3.3,1.3,6.4,3.3,8.6l7.3,9.7c1.1,1.3,3.1,1.3,4,0L166.6,458.5z"/>
	<g id="XMLID_333_">
		<path id="XMLID_334_" fill="#FFFFFF" d="M151,444c0-0.7,0.4-1.1,1.1-1.1s1.1,0.4,1.1,1.1s-0.4,1.1-1.1,1.1S151,444.6,151,444
			L151,444z M152.1,445.5L152.1,445.5c-0.9,0-1.5,0.2-2,0.9c-0.5,0.7-0.9,1.3-0.9,2v1.3c0,0.2,0.2,0.7,0.7,0.7
			c0.2,0,0.7-0.2,0.7-0.7v-1.3c0-0.4,0-0.9,0.4-1.1v2.9l0,0v4.8c0,0.2,0.2,0.7,0.7,0.7c0.4,0,0.4-0.2,0.4-0.7v-4.4h0.2v4.4
			c0,0.2,0.2,0.7,0.7,0.7s0.7-0.2,0.7-0.7v-4.8l0,0v-2.9c0.2,0.2,0.4,0.7,0.4,1.1v1.3c0,0.2,0.2,0.7,0.7,0.7c0.4,0,0.7-0.2,0.7-0.7
			v-1.3C155,446.6,153.7,445.5,152.1,445.5L152.1,445.5z M164.9,449.3c0-0.2,0-0.2-0.2-0.4c-0.4-1.3-1.3-3.3-3.3-3.3s-2.9,2-3.3,3.3
			c0,0.2-0.2,0.4-0.2,0.4c0,0.2,0,0.7,0.2,0.7h0.2c0.2,0,0.4,0,0.4-0.2s0.2-0.4,0.2-0.7c0.4-1.1,0.9-1.8,1.3-2.2l-1.5,3.7
			c-0.2,0.4,0,0.9,0.7,0.9h0.4v3.3c0,0.2,0.2,0.7,0.7,0.7c0.4,0,0.4-0.2,0.4-0.7v-3.3h0.2v3.3c0,0.2,0.2,0.7,0.4,0.7
			s0.7-0.2,0.7-0.7v-3.3h0.4c0.4,0,0.9-0.4,0.7-0.9l-1.5-3.7c0.4,0.4,0.9,1.3,1.3,2.2c0,0.2,0.2,0.4,0.2,0.7c0,0.2,0.2,0.2,0.4,0.2
			h0.2C164.9,449.9,165.1,449.7,164.9,449.3L164.9,449.3z M161.4,445.1c0.7,0,1.1-0.4,1.1-1.1s-0.4-1.1-1.1-1.1s-1.1,0.4-1.1,1.1
			C160.3,444.6,160.7,445.1,161.4,445.1L161.4,445.1z M156.5,442.4c-0.2,0-0.2,0-0.2,0.2v12.3c0,0.2,0,0.2,0.2,0.2s0.2,0,0.2-0.2
			v-12.2C156.7,442.7,156.7,442.4,156.5,442.4L156.5,442.4z"/>
	</g>
</g>
<g>
	<g id="XMLID_330_">
		<path id="XMLID_331_" fill="#666666" d="M136.6,430.8c2.4-2.6,3.7-6.2,3.3-9.9c-0.7-5.9-5.3-10.6-11.2-11.2
			c-7.7-0.9-14.3,5.1-14.3,12.8c0,3.3,1.3,6.4,3.3,8.6l7.3,9.7c1.1,1.3,3.1,1.3,4,0L136.6,430.8z"/>
	</g>
	<g>
		<path fill="#FFFFFF" d="M133.5,416.2v-0.7H121v0.7h0.7v10.6H121v0.7h12.5v-0.7h-0.7v-10.6H133.5L133.5,416.2z M124.9,420.2v3.3
			h-0.7v-3.3h-0.7l0.9-1.3l0.9,1.3H124.9L124.9,420.2z M132.2,426.8h-4.6v-10.6h4.6V426.8L132.2,426.8z"/>
	</g>
</g>
<g>
	<g id="XMLID_326_">
		<path id="XMLID_327_" fill="#666666" d="M381.5,398.6c2.4-2.6,3.7-6.2,3.3-9.9c-0.7-5.9-5.3-10.6-11.2-11.2
			c-7.7-0.9-14.3,5.1-14.3,12.8c0,3.3,1.3,6.4,3.3,8.6l7.3,9.7c1.1,1.3,3.1,1.3,4,0L381.5,398.6z"/>
	</g>
	<g>
		<path fill="#FFFFFF" d="M378.4,384.1v-0.7h-12.5v0.7h0.7v10.6h-0.7v0.7h12.5v-0.7h-0.7v-10.6H378.4L378.4,384.1z M369.8,388v3.3
			h-0.7V388h-0.7l0.9-1.3l0.9,1.3H369.8L369.8,388z M377.1,394.4h-4.6v-10.6h4.6V394.4L377.1,394.4z"/>
	</g>
</g>
<g>
	<g id="XMLID_18_">
		<path id="XMLID_21_" fill="#666666" d="M838.6,392c2.4-2.6,3.7-6.2,3.3-9.9c-0.7-5.9-5.3-10.6-11.2-11.2
			c-7.7-0.9-14.3,5.1-14.3,12.8c0,3.3,1.3,6.4,3.3,8.6l7.3,9.7c1.1,1.3,3.1,1.3,4,0L838.6,392z"/>
	</g>
	<g>
		<path fill="#FFFFFF" d="M835.5,377.3v-0.7H823v0.7h0.7v10.6H823v0.7h12.5v-0.7h-0.7v-10.6H835.5L835.5,377.3z M826.9,381.3v3.3
			h-0.7v-3.3h-0.7l0.9-1.3l0.9,1.3H826.9L826.9,381.3z M834.2,387.9h-4.6v-10.6h4.6V387.9L834.2,387.9z"/>
	</g>
</g>
<g>
	<g id="XMLID_318_">
		<path id="XMLID_319_" fill="#666666" d="M868.3,178.4c2.4-2.6,3.7-6.2,3.3-9.9c-0.7-5.9-5.3-10.6-11.2-11.2
			c-7.7-0.9-14.3,5.1-14.3,12.8c0,3.3,1.3,6.4,3.3,8.6l7.3,9.7c1.1,1.3,3.1,1.3,4,0L868.3,178.4z"/>
	</g>
	<g>
		<path fill="#FFFFFF" d="M865.2,163.9v-0.7h-12.5v0.7h0.7v10.6h-0.7v0.7h12.5v-0.7h-0.7v-10.6H865.2L865.2,163.9z M856.6,167.9v3.3
			h-0.7v-3.3h-0.7l0.9-1.3l0.9,1.3H856.6L856.6,167.9z M863.9,174.5h-4.6v-10.6h4.6V174.5L863.9,174.5z"/>
	</g>
</g>
<g>
	<g id="XMLID_316_">
		<path id="XMLID_317_" fill="#666666" d="M789.5,111.4c2.4-2.6,3.7-6.2,3.3-9.9c-0.7-5.9-5.3-10.6-11.2-11.2
			c-7.7-0.9-14.3,5.1-14.3,12.8c0,3.3,1.3,6.4,3.3,8.6l7.3,9.7c1.1,1.3,3.1,1.3,4,0L789.5,111.4z"/>
	</g>
	<g>
		<path fill="#FFFFFF" d="M786.2,96.9v-0.7h-12.5v0.7h0.7v10.6h-0.7v0.7h12.5v-0.7h-0.7V96.9H786.2L786.2,96.9z M777.8,100.9v3.3
			h-0.7v-3.3h-0.7l0.9-1.3l0.9,1.3H777.8L777.8,100.9z M784.9,107.5h-4.6V96.9h4.6V107.5L784.9,107.5z"/>
	</g>
</g>
<g>
	<g id="XMLID_314_">
		<path id="XMLID_315_" fill="#666666" d="M304.2,146.8c2.4-2.6,3.7-6.2,3.3-9.9c-0.7-5.9-5.3-10.6-11.2-11.2
			c-7.7-0.9-14.3,5.1-14.3,12.8c0,3.3,1.3,6.4,3.3,8.6l7.3,9.7c1.1,1.3,3.1,1.3,4,0L304.2,146.8z"/>
	</g>
	<g>
		<path fill="#FFFFFF" d="M301.1,132.3v-0.7h-12.5v0.7h0.7v10.6h-0.7v0.7h12.5v-0.7h-0.7v-10.6H301.1L301.1,132.3z M292.5,136.2v3.3
			h-0.7v-3.3h-0.7l0.9-1.3l0.9,1.3H292.5L292.5,136.2z M299.8,142.8h-4.7v-10.6h4.6L299.8,142.8L299.8,142.8z"/>
	</g>
</g>
<g>
	<g>
		<path fill="#727171" d="M64.1,76.3H52.9v34.6h-5.1V76.3H36.5v-4.5h27.6V76.3z"/>
	</g>
</g>
</svg>
