<?xml version="1.0" encoding="utf-8"?>
<!-- Generator: Adobe Illustrator 21.0.0, SVG Export Plug-In . SVG Version: 6.00 Build 0)  -->
<svg version="1.2" baseProfile="tiny" id="图层_1"
	 xmlns="http://www.w3.org/2000/svg" xmlns:xlink="http://www.w3.org/1999/xlink" x="0px" y="0px" viewBox="0 0 972 610.3"
	 xml:space="preserve">
<path fill="#FFF8EE" d="M407.2,470.6h96.2v-21.5h106v-13.7h31.9v13.7h229.5v-20.9h4.7v-65h-10.6v-88.4l0.5-0.6
	c6.4-7.2,6.4-17.1,6.4-17.3v-167H755.3v4.6H334.1v3.8h-90l-79.7,35.3h-62v336.6h232.1l15.4-8.4l47.7,8.2v-1.7h9.6V470.6L407.2,470.6
	z"/>
<rect x="102.5" y="133.8" fill="#FFC692" width="29.6" height="39.3"/>
<rect id="XMLID_255_" x="679.4" y="374.5" fill="#FFC692" width="19.5" height="31.2"/>
<rect id="XMLID_254_" x="699.9" y="374.5" fill="#DFFFD2" width="18.8" height="48.9"/>
<rect id="XMLID_253_" x="719.4" y="374.5" fill="#FFC692" width="18.8" height="48.9"/>
<rect id="XMLID_252_" x="739.2" y="374.5" fill="#B4E1F9" width="18.8" height="48.9"/>
<rect id="XMLID_251_" x="778.2" y="374.5" fill="#B4E1F9" width="18.8" height="33.6"/>
<polygon id="XMLID_249_" fill="#B4E1F9" points="777.4,408 758.6,408 758.6,377.3 764.6,377.3 764.6,374.5 777.4,374.5 "/>
<polygon fill="#B4E1F9" points="824.2,362.4 822.5,362.4 797.8,362.4 797.8,370.8 797.8,408 822.5,408 822.5,370.8 824.2,370.8 "/>
<polygon id="XMLID_247_" fill="#B4E1F9" points="679.4,406.7 699.1,406.7 699.1,424.3 717.6,424.3 717.6,432.2 711.2,432.2 
	711.2,449.9 691.6,449.9 691.6,434.6 679.4,434.6 "/>
<rect id="XMLID_246_" x="758.7" y="424.3" fill="#FFC692" width="38.2" height="25.6"/>
<rect id="XMLID_245_" x="797.8" y="424.3" fill="#FFC692" width="27" height="25.6"/>
<rect id="XMLID_244_" x="581.9" y="374.5" fill="#B4E1F9" width="28.2" height="32.5"/>
<rect id="XMLID_243_" x="562" y="374.5" fill="#FFC692" width="18.9" height="32.5"/>
<rect id="XMLID_242_" x="513.9" y="374.5" fill="#FFC692" width="28.6" height="32.5"/>
<rect id="XMLID_241_" x="445.5" y="374.5" fill="#FFC692" width="17.6" height="42"/>
<rect id="XMLID_240_" x="426" y="374.5" fill="#FFC692" width="18.6" height="42"/>
<rect id="XMLID_239_" x="406.2" y="374.5" fill="#FFC692" width="18.6" height="42"/>
<polygon id="XMLID_238_" fill="#FFC692" points="561.1,407.1 543.5,407.1 543.5,374.5 556,374.5 556,376.4 561.1,376.4 "/>
<polygon id="XMLID_237_" fill="#FFC692" points="504.1,374.5 464.1,374.5 464.1,376.4 464,376.4 464,416.5 483.7,416.5 483.7,391.6 
	504.1,391.6 "/>
<polygon fill="#FFC692" points="391.7,374.5 390.5,374.5 378.8,374.5 378.8,389.8 390.5,389.8 390.5,404.3 366.3,404.3 366.3,416.5 
	390.5,416.5 391.7,416.5 405.4,416.5 405.4,374.5 "/>
<polygon id="XMLID_236_" fill="#FFC692" points="406.2,417.3 406.2,437.4 411.2,437.4 411.2,458.4 406.2,458.4 406.2,471.3 
	424.9,471.3 424.9,417.3 "/>
<polygon id="XMLID_235_" fill="#FFC692" points="444.5,417.3 444.5,437.4 439.5,437.4 439.5,458.4 444.5,458.4 444.5,471.3 
	425.8,471.3 425.8,417.3 "/>
<polygon id="XMLID_234_" fill="#FFC692" points="483.7,417.3 466,417.3 466,417.4 445.5,417.4 445.5,472.3 470,472.3 470,438.3 
	483.7,438.3 "/>
<polygon id="XMLID_233_" fill="#FFC692" points="522.9,411.7 522.9,408 484.6,408 484.6,427.7 513.8,427.7 513.8,449.9 522.9,449.9 
	"/>
<polygon id="XMLID_232_" fill="#FFC692" points="523.8,408 523.8,425.8 528,425.8 528,449.9 542.5,449.9 542.5,408 "/>
<rect id="XMLID_231_" x="543.4" y="408" fill="#DDCDBF" width="66.9" height="21.5"/>
<polygon id="XMLID_230_" fill="#FFC692" points="374.1,417.4 405.4,417.4 405.4,469.5 397.7,469.5 "/>
<polygon id="XMLID_229_" fill="#FFC692" points="787.5,231.9 796.9,231.9 796.9,283.9 771.6,283.9 771.6,278 775.7,278 775.7,243.9 
	787.7,243.9 "/>
<polygon id="XMLID_228_" fill="#FFC692" points="797.8,231.9 816.5,231.9 816.5,285 806.6,285 806.6,282.1 797.8,282.1 "/>
<rect id="XMLID_227_" x="817.5" y="231.9" fill="#FFC692" width="54.9" height="17.7"/>
<rect id="XMLID_226_" x="817.5" y="212.3" fill="#FFC692" width="54.9" height="18.6"/>
<rect id="XMLID_225_" x="753.2" y="212.3" fill="#FF9388" width="63.3" height="18.6"/>
<rect id="XMLID_224_" x="753.2" y="192.8" fill="#FF9388" width="57.3" height="18.6"/>
<polygon id="XMLID_223_" fill="#FF9388" points="798.7,172.3 798.7,186.2 789.9,186.2 789.9,172.3 753.2,172.3 753.2,191.7 
	810.5,191.7 810.5,172.3 "/>
<polygon id="XMLID_222_" fill="#FFC692" points="872.4,200.2 830.5,200.2 830.5,144.2 811.4,144.2 811.4,211.3 830.5,211.3 
	830.5,211.3 872.4,211.3 "/>
<rect id="XMLID_221_" x="753.2" y="144.2" fill="#FFC692" width="57.3" height="27"/>
<polygon id="XMLID_220_" fill="#D7DFE2" points="783.9,89.3 783.9,103.6 786.9,103.6 786.9,132.1 810.5,132.1 810.5,89.3 "/>
<rect id="XMLID_219_" x="811.4" y="89.3" fill="#D7DFE2" width="20" height="54.1"/>
<rect id="XMLID_218_" x="832.3" y="89.3" fill="#FFDC78" stroke="#DCDDDD" stroke-width="0.235" stroke-miterlimit="10" width="19.1" height="59.7"/>
<rect id="XMLID_217_" x="852.3" y="89.3" fill="#FFDC78" stroke="#DCDDDD" stroke-width="0.235" stroke-miterlimit="10" width="20" height="59.7"/>
<polygon id="XMLID_216_" fill="#D7DFE2" points="716.7,132.9 719.5,132.9 719.5,93.9 700,93.9 700,143.4 716.7,143.4 "/>
<rect id="XMLID_215_" x="684.1" y="93.9" fill="#D7DFE2" width="14.9" height="49.4"/>
<rect id="XMLID_214_" x="680.4" y="137.6" fill="#FFFFFF" stroke="#DCDDDD" stroke-width="0.235" stroke-miterlimit="10" width="7.9" height="5.6"/>
<rect id="XMLID_213_" x="660.8" y="93.9" fill="#B4E1F9" width="18.6" height="49.4"/>
<rect id="XMLID_212_" x="641.2" y="93.9" fill="#B4E1F9" width="18.6" height="49.4"/>
<polygon id="XMLID_211_" fill="#93E2D5" points="634.5,140.4 640.3,140.4 640.3,93.9 617.8,93.9 617.8,143.4 634.5,143.4 "/>
<polygon id="XMLID_210_" data-shopid="34" fill="#D7DFE2" points="595,120.9 595,93.9 562.9,93.9 562.9,143.4 598.7,143.4 598.7,120.9 "/>
<rect id="XMLID_209_" data-shopid="33" x="543.4" y="93.9" fill="#D7DFE2" width="18.6" height="49.4"/>
<rect id="XMLID_208_" data-shopid="31" x="523.8" y="93.9" fill="#D7DFE2" width="18.6" height="49.4"/>
<rect id="XMLID_207_" data-shopid="30" x="493.9" y="106.9" fill="#D7DFE2" width="28.9" height="36.3"/>
<rect id="XMLID_206_" data-shopid="29" x="465.1" y="93.9" fill="#D7DFE2" width="18.6" height="49.4"/>
<polygon id="XMLID_205_" data-shopid="28" fill="#D7DFE2" points="464.1,93.9 449.2,93.9 449.2,120.4 445.5,120.4 445.5,143.4 455.3,143.4
	455.3,143.4 464.1,143.4 "/>
<rect id="XMLID_204_" data-shopid="27" x="425.8" y="93.9" fill="#D7DFE2" width="18.6" height="49.4"/>
<rect id="XMLID_203_" data-shopid="26" x="406.3" y="93.9" fill="#D7DFE2" width="18.6" height="49.4"/>
<rect id="XMLID_202_" data-shopid="25" x="386.7" y="93.9" fill="#D7DFE2" width="18.6" height="49.4"/>
<polygon id="XMLID_201_" data-shopid="24" fill="#D7DFE2" points="385.7,93.9 372.7,93.9 372.7,127.3 368.1,127.3 368.1,143.4 379.1,143.4
	379.1,143.4 385.7,143.4 "/>
<path id="XMLID_200_" fill="#D7DFE2" d="M351.3,93.9h-18.2v4.7h-6v52l5.3,7.6c6.3-7,18.5-16.9,18.5-16.9v-0.2h0.3V93.9L351.3,93.9
	L351.3,93.9z"/>
<polygon id="XMLID_199_" fill="#D7DFE2" points="315.9,98.5 288.9,98.5 288.9,132.5 304.3,132.5 304.3,137.6 315.9,137.6 
	315.9,132.5 315.9,132.5 "/>
<rect id="XMLID_198_" x="269.3" y="98.5" fill="#FFC692" width="18.6" height="39.1"/>
<rect id="XMLID_197_" x="248.9" y="98.5" fill="#FFC692" width="19.5" height="51.8"/>
<polygon id="XMLID_196_" fill="#FFC692" points="244.4,151.2 288,151.2 288,172.3 256.1,183.9 "/>
<polygon id="XMLID_195_" fill="#FFC692" points="288.9,151.2 326.4,151.2 331.7,158.9 323.9,168.1 321.8,166.7 317.7,172.1 
	288.9,172.1 "/>
<path id="XMLID_194_" fill="#FFC692" d="M256.5,184.7l32.1-11.6h31.8c0,0-8.2,11.6-12.4,19.9l-14.9,0.2L262.7,204l-3.2-8.8l0.9-0.3
	L256.5,184.7z"/>
<path id="XMLID_193_" fill="#FFC692" d="M263.2,205.1l29.8-11.2h14.1c0,0-5.6,10.8-11,25.6c0,0-2.6,8-3.8,14.1c0,0-13-2.8-19.9-2.6
	L263.2,205.1z"/>
<path id="XMLID_192_" fill="#D7DFE2" d="M444.6,172.1h-40.1v1.9H399v-1.9c0,0-4.7,0.3-8.5,4.2c-3.8,3.8-6,15.5-6,15.5h60.1V172.1z"
	/>
<path id="XMLID_191_" fill="#D7DFE2" d="M444.6,192.7v18.6h-68.1c0,0,6.8-14.6,7.6-18.6H444.6z"/>
<polygon id="XMLID_190_" fill="#FFD7ED" points="491.6,186.7 476.2,186.7 476.2,190.4 464.1,190.4 464.1,172.1 445.5,172.1 
	445.5,212.2 436.1,212.2 436.1,231.9 454.4,231.9 454.4,231.9 491.6,231.9 "/>
<polygon id="XMLID_189_" fill="#FFD7ED" points="522.9,172.1 498.2,172.1 498.2,174.9 492.6,174.9 492.6,231.9 502.2,231.9 
	502.2,231.9 522.9,231.9 "/>
<rect id="XMLID_188_" x="523.8" y="172.1" fill="#FFD7ED" width="18.6" height="59.7"/>
<rect id="XMLID_187_" x="543.4" y="172.1" fill="#FFD7ED" width="18.6" height="59.7"/>
<rect id="XMLID_186_" x="562.9" y="172.1" fill="#D7DFE2" width="18.6" height="59.7"/>
<rect id="XMLID_185_" x="582.9" y="232.8" fill="#93E2D5" width="15.8" height="51.2"/>
<rect id="XMLID_184_" x="601.2" y="232.8" fill="#D7DFE2" width="19.4" height="51.2"/>
<rect id="XMLID_183_" x="582.5" y="172.3" fill="#D7DFE2" width="58.8" height="19.4"/>
<rect id="XMLID_182_" x="582.5" y="192.7" fill="#D7DFE2" width="58.8" height="18.6"/>
<rect id="XMLID_181_" x="582.5" y="212.2" fill="#D7DFE2" width="58.8" height="19.5"/>
<polygon id="XMLID_180_" fill="#D7DFE2" points="639.4,271 639.4,264.7 641.2,264.7 641.2,232.8 621.7,232.8 621.7,283.9 
	641.2,283.9 641.2,271 "/>
<polygon id="XMLID_179_" fill="#93E2D5" points="563,232.8 563,281.8 569.5,281.8 569.5,283.9 582,283.9 582,232.8 "/>
<rect id="XMLID_178_" x="543.4" y="232.8" fill="#D7DFE2" width="18.6" height="51.2"/>
<polygon id="XMLID_177_" fill="#D7DFE2" points="529.9,232.8 529.9,252.3 522.9,252.3 522.9,283.9 542.5,283.9 542.5,232.8 "/>
<polygon id="XMLID_176_" fill="#D7DFE2" points="483.7,232.8 464.6,232.8 464.6,281.8 464.6,281.8 464.6,283.9 478.2,283.9 
	478.2,281.8 483.7,281.8 "/>
<rect id="XMLID_175_" x="445.5" y="232.8" fill="#D7DFE2" width="18.2" height="51.2"/>
<rect id="XMLID_174_" x="426.1" y="232.8" fill="#D7DFE2" width="18.5" height="51.2"/>
<rect id="XMLID_173_" x="406.3" y="232.8" fill="#D7DFE2" width="18.5" height="51.2"/>
<rect id="XMLID_172_" x="386.7" y="251.4" fill="#D7DFE2" width="18.5" height="32.5"/>
<path id="XMLID_171_" fill="#D7DFE2" d="M405.4,232.8h-41.6c0,0-8.7,12.9-13.4,17.7h55V232.8z"/>
<path id="XMLID_170_" fill="#D7DFE2" d="M349.6,251.4h36.3v32.5h-29.8c0,0-6-11.3-8.7-13.7c0,0-6.6-8.6-7.5-8.8
	C340,261.4,349.2,252.2,349.6,251.4z"/>
<polygon id="XMLID_169_" fill="#FFC692" points="736.8,231.9 766.6,231.9 766.6,243 758.7,243 758.7,258.4 736.7,258.4 "/>
<rect id="XMLID_168_" x="741.3" y="259.3" fill="#FFC692" width="17.4" height="24.6"/>
<polygon id="XMLID_167_" fill="#FFC692" points="718.6,231.9 735.7,231.9 735.7,259.3 740.3,259.3 740.3,283.9 718.6,283.9 "/>
<rect id="XMLID_166_" x="817.5" y="250.5" fill="#FFC692" width="18.6" height="34.6"/>
<path id="XMLID_165_" fill="#FFC692" d="M872.3,250.7H837v34.2h8.8c0,0,12.1,0,20.9-11.4C866.9,273.4,873.6,266.2,872.3,250.7z"/>
<polygon id="XMLID_164_" fill="#FFC692" points="227,418.2 239.1,422.9 229.2,454.8 229.2,471.4 210.6,471.4 210.6,448.6 "/>
<path id="XMLID_163_" fill="#FFC692" d="M240.1,423.2c0,0,10.4,2.9,12.1,2.9l-4.3,25.6v19.6H230v-16.4L240.1,423.2z"/>
<path id="XMLID_162_" fill="#FFC692" d="M213.3,410.5c0,0,10.8,6.8,12.9,7.2l-16.6,30.7v22.9H191v-28.5L213.3,410.5z"/>
<path id="XMLID_161_" fill="#FFC692" d="M201.6,400.9c0,0,9.6,8.6,11.1,8.9l-22.6,32.8v28.8h-18.6v-38.8L201.6,400.9z"/>
<polygon id="XMLID_160_" fill="#93E2D5" points="191.8,390.7 171.3,407.1 171.3,408 150.5,408 150.5,429.9 164.5,429.9 164.5,435.5 
	170.5,435.5 170.5,432.3 201.1,400.6 "/>
<path id="XMLID_159_" fill="#93E2D5" d="M101.4,367.9H170l0.9,1.8h8.4c0,0,4.7,9.7,7.1,13.1l-21.1,13.9h-46.4v-9.4h-17.4
	L101.4,367.9L101.4,367.9z"/>
<rect id="XMLID_158_" x="101.4" y="329.7" fill="#B4E1F9" width="69" height="18.6"/>
<rect id="XMLID_157_" x="128.6" y="289.6" fill="#93E2D5" width="41.9" height="22.8"/>
<rect id="XMLID_156_" x="116.5" y="212.2" fill="#FFC692" width="74.1" height="18.8"/>
<rect id="XMLID_155_" x="116.5" y="231.7" fill="#DFFFD2" width="74.1" height="18.8"/>
<polygon id="XMLID_154_" fill="#FFC692" points="183.9,279.3 116.5,279.3 116.5,251.3 190.6,251.3 190.6,269.7 "/>
<rect id="XMLID_153_" x="101.4" y="349.1" fill="#B4E1F9" width="69" height="16.4"/>
<polygon id="XMLID_152_" fill="#FFC692" points="118.7,173.1 179.1,173.1 190.6,205 190.6,205.8 185.8,205.8 185.8,211.3 
	118.7,211.3 "/>
<polygon id="XMLID_151_" fill="#FFC692" points="173.8,158.6 170.6,158.5 170.6,154 170.6,152.7 170.6,152.1 171.5,152.1 
	164.6,133.1 132.7,133.1 132.6,172.1 179.1,172.1 "/>
<rect id="XMLID_150_" x="852.3" y="172.2" fill="none" stroke="#DCDDDD" stroke-width="0.3" stroke-miterlimit="10" width="12.7" height="10.7"/>
<rect id="XMLID_149_" x="823.8" y="395.4" fill="none" stroke="#DCDDDD" stroke-width="0.3" stroke-miterlimit="10" width="10.8" height="12.5"/>
<rect id="XMLID_148_" x="823.8" y="380.7" fill="none" stroke="#DCDDDD" stroke-width="0.3" stroke-miterlimit="10" width="10.8" height="12.5"/>
<rect id="XMLID_147_" x="470.9" y="439.2" fill="#FFFFFF" stroke="#DCDDDD" stroke-width="0.235" stroke-miterlimit="10" width="11.6" height="10.7"/>
<rect id="XMLID_146_" x="366.3" y="377.3" fill="none" stroke="#DCDDDD" stroke-width="0.3" stroke-miterlimit="10" width="11.6" height="12.5"/>
<rect id="XMLID_145_" x="366.3" y="390.8" fill="none" stroke="#DCDDDD" stroke-width="0.3" stroke-miterlimit="10" width="11.6" height="12.5"/>
<rect id="XMLID_144_" x="118.8" y="424.7" fill="none" stroke="#DCDDDD" stroke-width="0.3" stroke-miterlimit="10" width="13.3" height="10.7"/>
<rect id="XMLID_143_" x="195.2" y="313.2" fill="none" stroke="#DCDDDD" stroke-width="0.3" stroke-miterlimit="10" width="12.5" height="10.7"/>
<rect id="XMLID_142_" x="642.1" y="236.9" fill="#FFFFFF" stroke="#DCDDDD" stroke-width="0.235" stroke-miterlimit="10" width="11.3" height="13.3"/>
<rect id="XMLID_141_" x="642.1" y="251.4" fill="#FFFFFF" stroke="#DCDDDD" stroke-width="0.235" stroke-miterlimit="10" width="11.3" height="13.6"/>
<rect id="XMLID_140_" x="774.4" y="104.6" fill="none" stroke="#DCDDDD" stroke-width="0.3" stroke-miterlimit="10" width="11.6" height="10.7"/>
<rect id="XMLID_139_" x="142.6" y="436.4" fill="none" stroke="#DCDDDD" stroke-width="0.3" stroke-miterlimit="10" width="28" height="35"/>
<rect id="XMLID_138_" x="289" y="138.6" fill="none" stroke="#DCDDDD" stroke-width="0.3" stroke-miterlimit="10" width="10.7" height="11.6"/>
<polygon id="XMLID_137_" fill="#FFC692" points="293.1,451.9 321.1,451.9 328,464.3 328,471.4 293.1,471.4 "/>
<polygon id="XMLID_136_" fill="none" stroke="#DCDDDD" stroke-width="0.3" stroke-miterlimit="10" points="311,410.4 317.4,407 
	349.3,463.5 334.9,472.3 303.1,414.9 "/>
<polygon id="XMLID_135_" fill="none" stroke="#DCDDDD" stroke-width="0.3" stroke-miterlimit="10" points="357.5,176.8 342.2,203.4 
	332.2,203.9 317.9,227.9 324.7,231.5 340.3,204.3 350.9,202.8 364.3,180.3 "/>
<polygon id="XMLID_134_" fill="none" stroke="#DCDDDD" stroke-width="0.3" stroke-miterlimit="10" points="165.7,132.1 180.2,126.8 
	201.4,184.3 187,189.9 "/>
<path id="XMLID_133_" fill="#C9CACA" d="M407.2,470.6h96.2v-21.5h106v-13.7h31.9v13.7h229.5v-20.9h4.7v-65h-10.6v-88.4l0.5-0.6
	c6.4-7.2,6.4-17.1,6.4-17.3v-167H755.3v4.6H334.1v3.8h-90l-79.7,35.3h-62v336.6h232.1l15.4-8.4l47.7,8.2v-1.7h9.6V470.6L407.2,470.6
	z M401.1,474.6l-50.6-8.8l-15.1,8.1H98.8V130.3h65L243.3,95h87.1v-3.8h421.4v-4.6h123.3V257c0,0.5,0.1,10.8-6.9,19.1v83.5h10.6v72.1
	h-4.7v20.9H637.6v-13.7H613v13.7H507v21.5H403.7v-1.8h-2.5L401.1,474.6L401.1,474.6z"/>
<rect id="XMLID_132_" x="101.4" y="448.1" fill="none" stroke="#DCDDDD" stroke-width="0.3" stroke-miterlimit="10" width="30.7" height="12.1"/>
<polygon id="XMLID_110_" fill="#D7DFE2" points="375.8,212.2 367.7,231.9 435.2,231.9 435.2,212.2 "/>
<path id="XMLID_109_" fill="#FFC692" d="M254.7,417.1c0,0,11.6,1.8,22.1,0.8l0.8,8.7h9.4l0.1,24.3h-38L254.7,417.1z"/>
<path id="XMLID_108_" fill="#FFC692" d="M277.6,417.8c0,0,10.6-1,21.7-5l21.1,38h-32.5v-25.2h-9.6L277.6,417.8z"/>
<g id="XMLID_102_">
	<g id="XMLID_104_">
		<path id="XMLID_107_" fill="#666666" d="M359.1,187.1c2.4-2.6,3.7-6.2,3.3-9.9c-0.7-5.9-5.3-10.6-11.2-11.2
			c-7.7-0.9-14.3,5.1-14.3,12.8c0,3.3,1.3,6.4,3.3,8.6l7.3,9.7c1.1,1.3,3.1,1.3,4,0L359.1,187.1z"/>
		<g id="XMLID_105_">
			<path id="XMLID_106_" fill="#FFFFFF" d="M348.3,172.5c0.9,0,1.5-0.7,1.5-1.5s-0.7-1.5-1.5-1.5c-0.9,0-1.5,0.7-1.5,1.5
				S347.4,172.5,348.3,172.5L348.3,172.5z M355.6,174.1h-2.2c-0.4,0-1.1,0.2-1.5,0.4l-2.2,2v-0.7c0-1.3-1.8-1.3-2,0v2.4l0,0
				l-1.8,1.8c-0.2,0.2-0.2,0.2-0.4,0.2h-1.1c-1.1,0-1.8,0.9-1.8,1.8s0.7,2,1.8,2c0,0,1.5,0,2,0s1.1,0,1.5-0.7l5.9-5.5
				c0,0,0.2,0,0.4,0c0,0,0.9,0,1.5,0s1.5-0.7,1.8-1.8C357.1,174.7,356.2,174.1,355.6,174.1L355.6,174.1z"/>
		</g>
	</g>
	<path id="XMLID_103_" fill="#FFFFFF" d="M348.3,180.5L348.3,180.5c-0.9,0-1.5-0.7-1.5-1.5v-4c0-0.9,0.7-1.5,1.5-1.5l0,0
		c0.9,0,1.5,0.7,1.5,1.5v4C349.9,179.6,349.2,180.5,348.3,180.5z"/>
</g>
<g id="XMLID_96_">
	<g id="XMLID_98_">
		<path id="XMLID_101_" fill="#666666" d="M194.4,151.1c2.4-2.6,3.7-6.2,3.3-9.9c-0.7-5.9-5.3-10.6-11.2-11.2
			c-7.7-0.9-14.3,5.1-14.3,12.8c0,3.3,1.3,6.4,3.3,8.6l7.3,9.7c1.1,1.3,3.1,1.3,4,0L194.4,151.1z"/>
		<g id="XMLID_99_">
			<path id="XMLID_100_" fill="#FFFFFF" d="M183.6,136.8c0.9,0,1.5-0.7,1.5-1.5c0-0.9-0.7-1.5-1.5-1.5c-0.9,0-1.5,0.7-1.5,1.5
				S182.7,136.8,183.6,136.8L183.6,136.8z M190.9,138.1h-2.2c-0.4,0-1.1,0.2-1.5,0.4l-2.2,2v-0.4c0-1.3-1.8-1.3-2,0v2.4l0,0
				l-1.8,1.8c-0.2,0.2-0.2,0.2-0.4,0.2h-1.1c-1.1,0-1.8,0.9-1.8,1.8c0,0.9,0.7,2,1.8,2c0,0,1.5,0,2,0c0.4,0,1.1,0,1.5-0.7l5.9-5.5
				c0,0,0.2,0,0.4,0c0,0,0.9,0,1.5,0c0.7,0,1.5-0.7,1.8-1.8C192.4,138.8,191.6,138.1,190.9,138.1L190.9,138.1z"/>
		</g>
	</g>
	<path id="XMLID_97_" fill="#FFFFFF" d="M183.6,144.5L183.6,144.5c-0.9,0-1.5-0.7-1.5-1.5v-4c0-0.9,0.7-1.5,1.5-1.5l0,0
		c0.9,0,1.5,0.7,1.5,1.5v4C185.2,143.8,184.5,144.5,183.6,144.5z"/>
</g>
<g id="XMLID_90_">
	<g id="XMLID_92_">
		<path id="XMLID_95_" fill="#666666" d="M335.6,431.4c2.4-2.6,3.7-6.2,3.3-9.9c-0.7-5.9-5.3-10.6-11.2-11.2
			c-7.7-0.9-14.3,5.1-14.3,12.8c0,3.3,1.3,6.4,3.3,8.6l7.3,9.7c1.1,1.3,3.1,1.3,4,0L335.6,431.4z"/>
		<g id="XMLID_93_">
			<path id="XMLID_94_" fill="#FFFFFF" d="M324.8,417.1c0.9,0,1.5-0.7,1.5-1.5s-0.7-1.5-1.5-1.5c-0.9,0-1.5,0.7-1.5,1.5
				C323.3,416.4,324,417.1,324.8,417.1L324.8,417.1z M332.1,418.4h-2.2c-0.4,0-1.1,0.2-1.5,0.4l-2.2,2v-0.7c0-1.3-1.8-1.3-2,0v2.4
				l0,0l-1.8,1.8c-0.2,0.2-0.2,0.2-0.4,0.2h-1.1c-1.1,0-1.8,0.9-1.8,1.8s0.7,2,1.8,2c0,0,1.5,0,2,0c0.4,0,1.1,0,1.5-0.7l5.9-5.5
				c0,0,0.2,0,0.4,0c0,0,0.9,0,1.5,0s1.5-0.7,1.8-1.8C333.6,419.1,332.8,418.4,332.1,418.4L332.1,418.4z"/>
		</g>
	</g>
	<path id="XMLID_91_" fill="#FFFFFF" d="M324.8,424.8L324.8,424.8c-0.9,0-1.5-0.7-1.5-1.5v-4c0-0.9,0.7-1.5,1.5-1.5l0,0
		c0.9,0,1.5,0.7,1.5,1.5v4C326.4,424.2,325.7,424.8,324.8,424.8z"/>
</g>
<g id="XMLID_86_">
	<path id="XMLID_89_" fill="#666666" d="M166.6,446.1c2.4-2.6,3.7-6.2,3.3-9.9c-0.7-5.9-5.3-10.6-11.2-11.2
		c-7.7-0.9-14.3,5.1-14.3,12.8c0,3.3,1.3,6.4,3.3,8.6l7.3,9.7c1.1,1.3,3.1,1.3,4,0L166.6,446.1z"/>
	<g id="XMLID_87_">
		<path id="XMLID_88_" fill="#FFFFFF" d="M151,431.6c0-0.7,0.4-1.1,1.1-1.1s1.1,0.4,1.1,1.1s-0.4,1.1-1.1,1.1S151,432.2,151,431.6
			L151,431.6z M152.1,433.1L152.1,433.1c-0.9,0-1.5,0.2-2,0.9c-0.5,0.7-0.9,1.3-0.9,2v1.3c0,0.2,0.2,0.7,0.7,0.7
			c0.2,0,0.7-0.2,0.7-0.7V436c0-0.4,0-0.9,0.4-1.1v2.9l0,0v4.8c0,0.2,0.2,0.7,0.7,0.7c0.4,0,0.4-0.2,0.4-0.7v-4.4h0.2v4.4
			c0,0.2,0.2,0.7,0.7,0.7s0.7-0.2,0.7-0.7v-4.8l0,0v-2.9c0.2,0.2,0.4,0.7,0.4,1.1v1.3c0,0.2,0.2,0.7,0.7,0.7c0.4,0,0.7-0.2,0.7-0.7
			V436C155,434.2,153.7,433.1,152.1,433.1L152.1,433.1z M164.9,436.9c0-0.2,0-0.2-0.2-0.4c-0.4-1.3-1.3-3.3-3.3-3.3s-2.9,2-3.3,3.3
			c0,0.2-0.2,0.4-0.2,0.4c0,0.2,0,0.7,0.2,0.7h0.2c0.2,0,0.4,0,0.4-0.2s0.2-0.4,0.2-0.7c0.4-1.1,0.9-1.8,1.3-2.2l-1.5,3.7
			c-0.2,0.4,0,0.9,0.7,0.9h0.4v3.3c0,0.2,0.2,0.7,0.7,0.7c0.4,0,0.4-0.2,0.4-0.7v-3.3h0.2v3.3c0,0.2,0.2,0.7,0.4,0.7
			s0.7-0.2,0.7-0.7v-3.3h0.4c0.4,0,0.9-0.4,0.7-0.9l-1.5-3.7c0.4,0.4,0.9,1.3,1.3,2.2c0,0.2,0.2,0.4,0.2,0.7c0,0.2,0.2,0.2,0.4,0.2
			h0.2C164.9,437.5,165.1,437.3,164.9,436.9L164.9,436.9z M161.4,432.7c0.7,0,1.1-0.4,1.1-1.1s-0.4-1.1-1.1-1.1s-1.1,0.4-1.1,1.1
			C160.3,432.2,160.7,432.7,161.4,432.7L161.4,432.7z M156.5,430c-0.2,0-0.2,0-0.2,0.2v12.3c0,0.2,0,0.2,0.2,0.2s0.2,0,0.2-0.2
			v-12.2C156.7,430.3,156.7,430,156.5,430L156.5,430z"/>
	</g>
</g>
<g>
	<g id="XMLID_84_">
		<path id="XMLID_85_" fill="#666666" d="M136.6,418.4c2.4-2.6,3.7-6.2,3.3-9.9c-0.7-5.9-5.3-10.6-11.2-11.2
			c-7.7-0.9-14.3,5.1-14.3,12.8c0,3.3,1.3,6.4,3.3,8.6l7.3,9.7c1.1,1.3,3.1,1.3,4,0L136.6,418.4z"/>
	</g>
	<g>
		<path fill="#FFFFFF" d="M133.5,403.8v-0.7H121v0.7h0.7v10.6H121v0.7h12.5v-0.7h-0.7v-10.6H133.5L133.5,403.8z M124.9,407.8v3.3
			h-0.7v-3.3h-0.7l0.9-1.3l0.9,1.3H124.9L124.9,407.8z M132.2,414.4h-4.6v-10.6h4.6V414.4L132.2,414.4z"/>
	</g>
</g>
<g>
	<g id="XMLID_82_">
		<path id="XMLID_83_" fill="#666666" d="M211.3,308.8c2.4-2.6,3.7-6.2,3.3-9.9c-0.7-5.9-5.3-10.6-11.2-11.2
			c-7.7-0.9-14.3,5.1-14.3,12.8c0,3.3,1.3,6.4,3.3,8.6l7.3,9.7c1.1,1.3,3.1,1.3,4,0L211.3,308.8z"/>
	</g>
	<g>
		<path fill="#FFFFFF" d="M208.2,294.3v-0.7h-12.5v0.7h0.7v10.6h-0.7v0.7h12.5v-0.9h-0.7v-10.6h0.7V294.3z M199.6,298v3.3h-0.7V298
			h-0.7l0.9-1.3l0.9,1.3H199.6L199.6,298z M206.9,304.6h-4.6V294h4.6V304.6L206.9,304.6z"/>
	</g>
</g>
<g>
	<g id="XMLID_80_">
		<path id="XMLID_81_" fill="#666666" d="M381.5,386.2c2.4-2.6,3.7-6.2,3.3-9.9c-0.7-5.9-5.3-10.6-11.2-11.2
			c-7.7-0.9-14.3,5.1-14.3,12.8c0,3.3,1.3,6.4,3.3,8.6l7.3,9.7c1.1,1.3,3.1,1.3,4,0L381.5,386.2z"/>
	</g>
	<g>
		<path fill="#FFFFFF" d="M378.4,371.7V371h-12.5v0.7h0.7v10.6h-0.7v0.7h12.5v-0.7h-0.7v-10.6H378.4L378.4,371.7z M369.8,375.6v3.3
			h-0.7v-3.3h-0.7l0.9-1.3l0.9,1.3H369.8L369.8,375.6z M377.1,382h-4.6v-10.6h4.6V382L377.1,382z"/>
	</g>
</g>
<g>
	<g id="XMLID_78_">
		<path id="XMLID_79_" fill="#666666" d="M486.1,433.5c2.4-2.6,3.7-6.2,3.3-9.9c-0.7-5.9-5.3-10.6-11.2-11.2
			c-7.7-0.9-14.3,5.1-14.3,12.8c0,3.3,1.3,6.4,3.3,8.6l7.3,9.7c1.1,1.3,3.1,1.3,4,0L486.1,433.5z"/>
	</g>
	<g>
		<path fill="#FFFFFF" d="M483.1,418.9v-0.6h-12.5v0.7h0.7v10.6h-0.7v0.7h12.5v-0.7h-0.7V419L483.1,418.9L483.1,418.9z M474.5,422.9
			v3.3h-0.7v-3.3h-0.7l0.9-1.3l0.9,1.3H474.5L474.5,422.9z M481.7,429.5h-4.6v-10.6h4.6V429.5L481.7,429.5z"/>
	</g>
</g>
<g>
	<g id="XMLID_76_">
		<path id="XMLID_77_" fill="#666666" d="M657.2,248c2.4-2.6,3.7-6.2,3.3-9.9c-0.7-5.9-5.3-10.6-11.2-11.2
			c-7.7-0.9-14.3,5.1-14.3,12.8c0,3.3,1.3,6.4,3.3,8.6l7.3,9.7c1.1,1.3,3.1,1.3,4,0L657.2,248z"/>
	</g>
	<g>
		<path fill="#FFFFFF" d="M654.1,233.3v-0.7h-12.5v0.7h0.7v10.6h-0.7v0.7h12.5v-0.7h-0.7v-10.6H654.1L654.1,233.3z M645.5,237.3v3.3
			h-0.7v-3.3h-0.7l0.9-1.3l0.9,1.3H645.5L645.5,237.3z M652.8,243.9h-4.6v-10.6h4.6V243.9L652.8,243.9z"/>
	</g>
</g>
<g>
	<g id="XMLID_74_">
		<path id="XMLID_75_" fill="#666666" d="M838.6,392.2c2.4-2.6,3.7-6.2,3.3-9.9c-0.7-5.9-5.3-10.6-11.2-11.2
			c-7.7-0.9-14.3,5.1-14.3,12.8c0,3.3,1.3,6.4,3.3,8.6l7.3,9.7c1.1,1.3,3.1,1.3,4,0L838.6,392.2z"/>
	</g>
	<g>
		<path fill="#FFFFFF" d="M835.5,377.7V377H823v0.7h0.7v10.6H823v0.7h12.5v-0.7h-0.7v-10.6H835.5L835.5,377.7z M826.9,381.4v3.3
			h-0.7v-3.3h-0.7l0.9-1.3l0.9,1.3H826.9L826.9,381.4z M834.2,388h-4.6v-10.6h4.6V388L834.2,388z"/>
	</g>
</g>
<g>
	<g id="XMLID_72_">
		<path id="XMLID_73_" fill="#666666" d="M868.3,166c2.4-2.6,3.7-6.2,3.3-9.9c-0.7-5.9-5.3-10.6-11.2-11.2
			c-7.7-0.9-14.3,5.1-14.3,12.8c0,3.3,1.3,6.4,3.3,8.6l7.3,9.7c1.1,1.3,3.1,1.3,4,0L868.3,166z"/>
	</g>
	<g>
		<path fill="#FFFFFF" d="M865.2,151.5v-0.7h-12.5v0.7h0.7v10.6h-0.7v0.7h12.5v-0.7h-0.7v-10.6H865.2L865.2,151.5z M856.6,155.5v3.3
			h-0.7v-3.3h-0.7l0.9-1.3l0.9,1.3H856.6L856.6,155.5z M863.9,162.1h-4.6v-10.6h4.6V162.1L863.9,162.1z"/>
	</g>
</g>
<g>
	<g id="XMLID_37_">
		<path id="XMLID_38_" fill="#666666" d="M789.5,99c2.4-2.6,3.7-6.2,3.3-9.9c-0.7-5.9-5.3-10.6-11.2-11.2
			c-7.7-0.9-14.3,5.1-14.3,12.8c0,3.3,1.3,6.4,3.3,8.6l7.3,9.7c1.1,1.3,3.1,1.3,4,0L789.5,99z"/>
	</g>
	<g>
		<path fill="#FFFFFF" d="M786.2,84.5v-0.7h-12.5v0.7h0.7v10.6h-0.7v0.7h12.5v-0.7h-0.7V84.5H786.2L786.2,84.5z M777.8,88.5v3.3
			h-0.7v-3.3h-0.7l0.9-1.3l0.9,1.3H777.8L777.8,88.5z M784.9,95.1h-4.6V84.5h4.6V95.1L784.9,95.1z"/>
	</g>
</g>
<g>
	<g id="XMLID_35_">
		<path id="XMLID_36_" fill="#666666" d="M304.2,134.4c2.4-2.6,3.7-6.2,3.3-9.9c-0.7-5.9-5.3-10.6-11.2-11.2
			c-7.7-0.9-14.3,5.1-14.3,12.8c0,3.3,1.3,6.4,3.3,8.6l7.3,9.7c1.1,1.3,3.1,1.3,4,0L304.2,134.4z"/>
	</g>
	<g>
		<path fill="#FFFFFF" d="M301.1,119.9v-0.7h-12.5v0.7h0.7v10.6h-0.7v0.7h12.5v-0.7h-0.7v-10.6H301.1L301.1,119.9z M292.5,123.8v3.3
			h-0.7v-3.3h-0.7l0.9-1.3l0.9,1.3H292.5L292.5,123.8z M299.8,130.4h-4.7v-10.6h4.6L299.8,130.4L299.8,130.4z"/>
	</g>
</g>
<g>
	<g>
		<g id="XMLID_30_">
			<path id="XMLID_33_" fill="#666666" d="M122.1,443.7c2.4-2.6,3.7-6.2,3.3-9.9c-0.7-5.9-5.3-10.6-11.2-11.2
				c-7.7-0.9-14.3,5.1-14.3,12.8c0,3.3,1.3,6.4,3.3,8.6l7.3,9.7c1.1,1.3,3.1,1.3,4,0L122.1,443.7z"/>
		</g>
	</g>
	<g>
		<path fill="#FFFFFF" d="M120.6,433.8c-0.2-0.2-0.2-0.2-0.4-0.4c-2.2-2-4.4-4.2-6.6-6.2c-0.2-0.2-0.4-0.4-0.7-0.4c0,0,0,0-0.2,0
			s-0.2,0-0.4,0.2c-0.7,0.4-1.1,1.1-1.8,1.5c-1.3,1.3-2.6,2.4-4,3.7c-0.7,0.4-1.1,1.1-1.8,1.5c-0.2,0.2-0.2,0.4-0.2,0.7
			c0.2,0.2,0.2,0.4,0.7,0.4c0.4,0,1.1,0,1.5,0c0.2,0,0.2,0,0.2,0.2c0,2,0,4,0,5.9c0,0.2,0,0.2,0,0.4c0.2,0.2,0.4,0.2,0.7,0.2
			c2.2,0,4.4,0,6.6,0c1.1,0,2.2,0,3.1,0c0.4,0,0.7-0.2,0.7-0.7c0-0.2,0-0.7,0-0.9c0-1.8,0-3.3,0-5.1c0-0.2,0-0.2,0-0.4
			c0-0.4-0.4-0.7-0.9-0.4c-0.2,0.2-0.2,0.4-0.2,0.7c0,1.8,0,3.5,0,5.3c0,0.2,0,0.2-0.2,0.2c-2.9,0-5.5,0-8.4,0c-0.2,0-0.2,0-0.2-0.2
			c0-2,0-4,0-6.2c0-0.4-0.2-0.7-0.7-0.7c-0.2,0-0.4,0-0.7,0h-0.2l0.2-0.2c1.8-1.8,3.5-3.3,5.5-5.1c0.4-0.4,0.2-0.4,0.7,0
			c2.2,2.2,4.4,4.2,6.6,6.4c0.2,0.2,0.4,0.2,0.7,0C120.8,434.3,120.8,434,120.6,433.8L120.6,433.8z M110.4,439.3
			c2-1.3,3.7-2.6,5.7-4.2l0,0h-3.3l0,0c0.9-0.9,1.5-1.5,2.4-2.4l0,0c-1.1,0-2,0-3.1,0c0,0-0.2,0-0.2,0.2c-0.7,0.9-1.1,1.5-1.8,2.4
			c-0.2,0.2-0.4,0.4-0.7,0.9h2.4C111.3,437.1,110.9,438.2,110.4,439.3L110.4,439.3L110.4,439.3z"/>
	</g>
</g>
<g>
	<rect id="XMLID_28_" x="100.6" y="523.7" fill="#D7DFE2" width="13.7" height="13.7"/>
	
		<text id="XMLID_27_" transform="matrix(1 0 0 1 118.6894 534.2698)" fill="#231815" font-family="'MicrosoftYaHei'" font-size="12px">未签署</text>
</g>
<g id="XMLID_278_">
	<rect id="XMLID_280_" x="196.7" y="523.7" fill="#FF9388" width="13.7" height="13.7"/>
	
		<text id="XMLID_279_" transform="matrix(1 0 0 1 214.7939 534.2698)" fill="#231815" font-family="'MicrosoftYaHei'" font-size="12px">超市</text>
</g>
<g>
	
		<rect id="XMLID_25_" x="286.8" y="523.7" fill="#FFDC78" stroke="#DCDDDD" stroke-width="0.235" stroke-miterlimit="10" width="13.7" height="13.7"/>
	
		<text id="XMLID_24_" transform="matrix(1 0 0 1 304.8983 534.2698)" fill="#231815" font-family="'MicrosoftYaHei'" font-size="12px">影院</text>
</g>
<g>
	<rect id="XMLID_20_" x="737.3" y="523.7" fill="#B4E1F9" width="13.7" height="13.7"/>
	
		<text id="XMLID_19_" transform="matrix(1 0 0 1 755.421 534.2698)" fill="#231815" font-family="'MicrosoftYaHei'" font-size="12px">配套</text>
</g>
<g>
	<rect id="XMLID_283_" x="827.5" y="523.7" fill="#DDCDBF" width="13.7" height="13.7"/>
	
		<text id="XMLID_282_" transform="matrix(1 0 0 1 845.5254 534.2698)" fill="#231815" font-family="'MicrosoftYaHei'" font-size="12px">酒店</text>
</g>
<g>
	<rect id="XMLID_13_" x="376.9" y="523.7" fill="#79C7C4" width="13.7" height="13.7"/>
	
		<text id="XMLID_12_" transform="matrix(1 0 0 1 395.0029 534.2698)" fill="#231815" font-family="'MicrosoftYaHei'" font-size="12px">百货</text>
</g>
<g id="XMLID_8_">
	<rect id="XMLID_10_" x="467" y="523.7" fill="#FFD7ED" width="13.7" height="13.7"/>
	
		<text id="XMLID_9_" transform="matrix(1 0 0 1 485.1074 534.2698)" fill="#231815" font-family="'MicrosoftYaHei'" font-size="12px">服装</text>
</g>
<g>
	<rect id="XMLID_7_" x="557.1" y="523.7" fill="#DFFFD2" width="13.7" height="13.7"/>
	
		<text id="XMLID_6_" transform="matrix(1 0 0 1 575.2118 534.2698)" fill="#231815" font-family="'MicrosoftYaHei'" font-size="12px">儿童</text>
</g>
<g id="XMLID_1_">
	<rect id="XMLID_4_" x="647.2" y="523.7" fill="#FFC692" width="13.7" height="13.7"/>
	
		<text id="XMLID_3_" transform="matrix(1 0 0 1 665.3164 534.2698)" fill="#231815" font-family="'MicrosoftYaHei'" font-size="12px">餐饮</text>
</g>
<g>
	<g>
		<path fill="#727171" d="M39.1,110.9V71.8h11.5c3.4,0,6.2,0.8,8.2,2.5c2.1,1.6,3.1,3.8,3.1,6.5c0,2.2-0.6,4.1-1.8,5.7
			c-1.2,1.7-2.9,2.8-5,3.5v0.1c2.7,0.3,4.8,1.3,6.4,3s2.4,3.9,2.4,6.5c0,3.4-1.2,6.1-3.6,8.2c-2.4,2.1-5.5,3.1-9.3,3.1H39.1z
			 M44.1,76.2v12.3h4.6c2.4,0,4.4-0.6,5.7-1.8s2.1-2.8,2.1-4.9c0-3.7-2.5-5.5-7.4-5.5L44.1,76.2L44.1,76.2z M44.1,92.8v13.6h6.1
			c2.6,0,4.7-0.6,6.1-1.8s2.2-2.9,2.2-5.1c0-4.5-3-6.7-9.1-6.7H44.1z"/>
	</g>
</g>
</svg>
