<?xml version="1.0" encoding="utf-8"?>
<!-- Generator: Adobe Illustrator 21.0.0, SVG Export Plug-In . SVG Version: 6.00 Build 0)  -->
<svg version="1.2" baseProfile="tiny" id="图层_1"
	 xmlns="http://www.w3.org/2000/svg" xmlns:xlink="http://www.w3.org/1999/xlink" x="0px" y="0px" viewBox="0 0 972 554.3"
	 overflow="scroll" xml:space="preserve">
<g id="XMLID_31_">
	<g id="XMLID_34_">
		<path id="XMLID_41_" fill="#666666" d="M349.4,292.8c2.4-2.6,3.7-6.2,3.3-9.9c-0.7-5.9-5.3-10.6-11.2-11.2
			c-7.7-0.9-14.3,5.1-14.3,12.8c0,3.3,1.3,6.4,3.3,8.6l7.3,9.7c1.1,1.3,3.1,1.3,4,0L349.4,292.8z"/>
		<g id="XMLID_39_">
			<path id="XMLID_40_" fill="#FFFFFF" d="M338.6,278.2c0.9,0,1.5-0.7,1.5-1.5s-0.7-1.5-1.5-1.5c-0.9,0-1.5,0.7-1.5,1.5
				S337.7,278.2,338.6,278.2L338.6,278.2z M345.9,279.8h-2.2c-0.4,0-1.1,0.2-1.5,0.4l-2.2,2v-0.7c0-1.3-1.8-1.3-2,0v2.4l0,0
				l-1.8,1.8c-0.2,0.2-0.2,0.2-0.4,0.2h-1.1c-1.1,0-1.8,0.9-1.8,1.8s0.7,2,1.8,2c0,0,1.5,0,2,0s1.1,0,1.5-0.7l5.9-5.5
				c0,0,0.2,0,0.4,0c0,0,0.9,0,1.5,0s1.5-0.7,1.8-1.8C347.4,280.4,346.5,279.8,345.9,279.8L345.9,279.8z"/>
		</g>
	</g>
	<path id="XMLID_32_" fill="#FFFFFF" d="M338.6,286.2L338.6,286.2c-0.9,0-1.5-0.7-1.5-1.5v-4c0-0.9,0.7-1.5,1.5-1.5l0,0
		c0.9,0,1.5,0.7,1.5,1.5v4C340.2,285.3,339.5,286.2,338.6,286.2z"/>
</g>
<g id="XMLID_14_">
	<path id="XMLID_17_" fill="#666666" d="M171.3,478.6c2.4-2.6,3.7-6.2,3.3-9.9c-0.7-5.9-5.3-10.6-11.2-11.2
		c-7.7-0.9-14.3,5.1-14.3,12.8c0,3.3,1.3,6.4,3.3,8.6l7.3,9.7c1.1,1.3,3.1,1.3,4,0L171.3,478.6z"/>
	<g id="XMLID_15_">
		<path id="XMLID_16_" fill="#FFFFFF" d="M155.7,464.1c0-0.7,0.4-1.1,1.1-1.1s1.1,0.4,1.1,1.1c0,0.7-0.4,1.1-1.1,1.1
			S155.7,464.6,155.7,464.1L155.7,464.1z M156.8,465.6L156.8,465.6c-0.9,0-1.5,0.2-2,0.9s-0.9,1.3-0.9,2v1.3c0,0.2,0.2,0.7,0.7,0.7
			c0.2,0,0.7-0.2,0.7-0.7v-1.3c0-0.4,0-0.9,0.4-1.1v2.9l0,0v4.8c0,0.2,0.2,0.7,0.7,0.7c0.4,0,0.4-0.2,0.4-0.7v-4.4h0.2v4.4
			c0,0.2,0.2,0.7,0.7,0.7s0.7-0.2,0.7-0.7v-4.8l0,0v-2.9c0.2,0.2,0.4,0.7,0.4,1.1v1.3c0,0.2,0.2,0.7,0.7,0.7c0.4,0,0.7-0.2,0.7-0.7
			v-1.3C159.7,466.6,158.4,465.6,156.8,465.6L156.8,465.6z M169.6,469.3c0-0.2,0-0.2-0.2-0.4c-0.4-1.3-1.3-3.3-3.3-3.3
			s-2.9,2-3.3,3.3c0,0.2-0.2,0.4-0.2,0.4c0,0.2,0,0.7,0.2,0.7h0.2c0.2,0,0.4,0,0.4-0.2s0.2-0.4,0.2-0.7c0.4-1.1,0.9-1.8,1.3-2.2
			l-1.5,3.7c-0.2,0.4,0,0.9,0.7,0.9h0.4v3.3c0,0.2,0.2,0.7,0.7,0.7c0.4,0,0.4-0.2,0.4-0.7v-3.3h0.2v3.3c0,0.2,0.2,0.7,0.4,0.7
			s0.7-0.2,0.7-0.7v-3.3h0.4c0.4,0,0.9-0.4,0.7-0.9l-1.5-3.7c0.4,0.4,0.9,1.3,1.3,2.2c0,0.2,0.2,0.4,0.2,0.7c0,0.2,0.2,0.2,0.4,0.2
			h0.2C169.6,469.9,169.8,469.7,169.6,469.3L169.6,469.3z M166.1,465.1c0.7,0,1.1-0.4,1.1-1.1c0-0.7-0.4-1.1-1.1-1.1
			s-1.1,0.4-1.1,1.1C165,464.6,165.4,465.1,166.1,465.1L166.1,465.1z M161.2,462.4c-0.2,0-0.2,0-0.2,0.2v12.3c0,0.2,0,0.2,0.2,0.2
			s0.2,0,0.2-0.2v-12.2C161.4,462.7,161.4,462.4,161.2,462.4L161.2,462.4z"/>
	</g>
</g>
<g>
	<g id="XMLID_5_">
		<path id="XMLID_11_" fill="#666666" d="M243.7,348.9c2.4-2.6,3.7-6.2,3.3-9.9c-0.7-5.9-5.3-10.6-11.2-11.2
			c-7.7-0.9-14.3,5.1-14.3,12.8c0,3.3,1.3,6.4,3.3,8.6l7.3,9.7c1.1,1.3,3.1,1.3,4,0L243.7,348.9z"/>
	</g>
	<g>
		<path fill="#FFFFFF" d="M240.6,334.4v-0.7h-12.5v0.7h0.7v10.6h-0.7v0.7h12.5v-0.7h-0.7v-10.6H240.6L240.6,334.4z M232,338.3v3.3
			h-0.7v-3.3h-0.7l0.9-1.3l0.9,1.3H232L232,338.3z M239.3,344.7h-4.6v-10.6h4.6V344.7L239.3,344.7z"/>
	</g>
</g>
<g>
	<g id="XMLID_44_">
		<path id="XMLID_45_" fill="#666666" d="M872.7,210.7c2.4-2.6,3.7-6.2,3.3-9.9c-0.7-5.9-5.3-10.6-11.2-11.2
			c-7.7-0.9-14.3,5.1-14.3,12.8c0,3.3,1.3,6.4,3.3,8.6l7.3,9.7c1.1,1.3,3.1,1.3,4,0L872.7,210.7z"/>
	</g>
	<g>
		<path fill="#FFFFFF" d="M869.6,196.2v-0.7h-12.5v0.7h0.7v10.6h-0.7v0.7h12.5v-0.7h-0.7v-10.6H869.6L869.6,196.2z M861,200.2v3.3
			h-0.7v-3.3h-0.7l0.9-1.3l0.9,1.3H861L861,200.2z M868.3,206.8h-4.6v-10.6h4.6V206.8L868.3,206.8z"/>
	</g>
</g>
<g>
	<g id="XMLID_42_">
		<path id="XMLID_43_" fill="#666666" d="M400.8,208.8c2.4-2.6,3.7-6.2,3.3-9.9c-0.7-5.9-5.3-10.6-11.2-11.2
			c-7.7-0.9-14.3,5.1-14.3,12.8c0,3.3,1.3,6.4,3.3,8.6l7.3,9.7c1.1,1.3,3.1,1.3,4,0L400.8,208.8z"/>
	</g>
	<g>
		<path fill="#FFFFFF" d="M397.7,194.3v-0.7h-12.5v0.7h0.7v10.6h-0.7v0.7h12.5v-0.7H397v-10.6H397.7L397.7,194.3z M389.1,198.2v3.3
			h-0.7v-3.3h-0.7l0.9-1.3l0.9,1.3H389.1L389.1,198.2z M396.4,204.8h-4.7v-10.6h4.6v10.6H396.4z"/>
	</g>
</g>
<g>
	<g>
		<path fill="#717171" d="M66.4,75.8H51.3v13.1h14v4.4h-14v17.1h-5.1V71.3h20.2V75.8z"/>
	</g>
</g>
<polygon fill="none" stroke="#EEEEEE" stroke-width="0.3" stroke-miterlimit="10" points="385.1,262.6 385.1,264.4 378.5,264.4 
	378.5,262.6 373.1,262.6 373.1,264.4 373.1,269.1 373.1,278.1 385.1,278.1 385.1,314.4 406.1,314.4 406.1,312.6 411.8,312.6 
	411.8,262.6 "/>
<rect x="412.7" y="262.6" fill="none" stroke="#EEEEEE" stroke-width="0.3" stroke-miterlimit="10" width="18.9" height="51"/>
<rect x="427.1" y="201.2" fill="none" stroke="#EEEEEE" stroke-width="0.3" stroke-miterlimit="10" width="24.3" height="40.5"/>
<rect x="432.6" y="262.6" fill="none" stroke="#EEEEEE" stroke-width="0.3" stroke-miterlimit="10" width="18.9" height="51.9"/>
<rect x="452.5" y="262.6" fill="none" stroke="#EEEEEE" stroke-width="0.3" stroke-miterlimit="10" width="18.3" height="51.9"/>
<rect x="471.8" y="262.6" fill="none" stroke="#EEEEEE" stroke-width="0.3" stroke-miterlimit="10" width="19.2" height="51.9"/>
<polygon fill="none" stroke="#EEEEEE" stroke-width="0.3" stroke-miterlimit="10" points="513.7,306.8 507.2,306.8 507.2,273.3 
	513.7,273.3 513.7,262.6 507.2,262.6 507.2,262.6 492.1,262.6 492.1,314.4 507.2,314.4 507.2,314.4 513.7,314.4 "/>
<polygon fill="none" stroke="#EEEEEE" stroke-width="0.3" stroke-miterlimit="10" points="537.8,262.6 537.8,281.8 530.7,281.8 
	530.7,314.4 550.5,314.4 550.5,262.6 "/>
<rect x="551.5" y="262.6" fill="none" stroke="#EEEEEE" stroke-width="0.3" stroke-miterlimit="10" width="18.9" height="51.9"/>
<rect x="571.3" y="262.6" fill="none" stroke="#EEEEEE" stroke-width="0.3" stroke-miterlimit="10" width="19.4" height="51.9"/>
<rect x="591.6" y="262.6" fill="none" stroke="#EEEEEE" stroke-width="0.3" stroke-miterlimit="10" width="15" height="51.9"/>
<rect x="313.7" y="458.8" fill="none" stroke="#EEEEEE" stroke-width="0.3" stroke-miterlimit="10" width="19.8" height="45.3"/>
<rect x="335.8" y="458.8" fill="none" stroke="#EEEEEE" stroke-width="0.3" stroke-miterlimit="10" width="17.3" height="45.3"/>
<rect x="353.9" y="458.8" fill="none" stroke="#EEEEEE" stroke-width="0.3" stroke-miterlimit="10" width="17.3" height="45.3"/>
<rect x="372.2" y="458.8" fill="none" stroke="#EEEEEE" stroke-width="0.3" stroke-miterlimit="10" width="19.8" height="45.3"/>
<rect x="393" y="458.8" fill="none" stroke="#EEEEEE" stroke-width="0.3" stroke-miterlimit="10" width="18.8" height="45.3"/>
<rect x="452.3" y="458.8" fill="none" stroke="#EEEEEE" stroke-width="0.3" stroke-miterlimit="10" width="29.4" height="45.3"/>
<rect x="535.8" y="458.8" fill="none" stroke="#EEEEEE" stroke-width="0.3" stroke-miterlimit="10" width="33.6" height="23.6"/>
<rect x="649.6" y="430.1" fill="none" stroke="#EEEEEE" stroke-width="0.3" stroke-miterlimit="10" width="18.9" height="52.4"/>
<rect x="669.4" y="430.1" fill="none" stroke="#EEEEEE" stroke-width="0.3" stroke-miterlimit="10" width="17.2" height="52.4"/>
<rect x="710" y="430.1" fill="none" stroke="#EEEEEE" stroke-width="0.3" stroke-miterlimit="10" width="18.9" height="52.4"/>
<rect x="749.6" y="430.1" fill="none" stroke="#EEEEEE" stroke-width="0.3" stroke-miterlimit="10" width="18.9" height="47.2"/>
<rect x="789.3" y="430.1" fill="none" stroke="#EEEEEE" stroke-width="0.3" stroke-miterlimit="10" width="18.9" height="52.3"/>
<rect x="836.4" y="430.1" fill="none" stroke="#EEEEEE" stroke-width="0.3" stroke-miterlimit="10" width="36.4" height="31.1"/>
<rect x="630.7" y="201.1" fill="none" stroke="#EEEEEE" stroke-width="0.3" stroke-miterlimit="10" width="19.9" height="40.6"/>
<rect x="610.4" y="201.1" fill="none" stroke="#EEEEEE" stroke-width="0.3" stroke-miterlimit="10" width="19.4" height="40.6"/>
<rect x="589.5" y="201.1" fill="none" stroke="#EEEEEE" stroke-width="0.3" stroke-miterlimit="10" width="18" height="40.6"/>
<rect x="571.3" y="201.1" fill="none" stroke="#EEEEEE" stroke-width="0.3" stroke-miterlimit="10" width="17.2" height="40.6"/>
<rect x="551.5" y="201.1" fill="none" stroke="#EEEEEE" stroke-width="0.3" stroke-miterlimit="10" width="18.9" height="40.6"/>
<rect x="531.6" y="201.1" fill="none" stroke="#EEEEEE" stroke-width="0.3" stroke-miterlimit="10" width="18.9" height="40.6"/>
<rect x="501.4" y="201.1" fill="none" stroke="#EEEEEE" stroke-width="0.3" stroke-miterlimit="10" width="29.3" height="40.6"/>
<polygon fill="none" stroke="#EEEEEE" stroke-width="0.3" stroke-miterlimit="10" points="384.9,396.6 484,396.6 484,404.7 
	491.1,404.7 491.1,438.1 484.4,438.1 484.4,440.2 420.4,440.2 419.3,440.2 419.3,438.1 412.7,438.1 412.7,439.9 396.5,439.9 
	396.5,421.6 384.9,421.6 "/>
<polygon fill="none" stroke="#EEEEEE" stroke-width="0.3" stroke-miterlimit="10" points="446.5,490.8 446.5,469.6 451.4,469.6 
	451.4,458.8 412.7,458.8 412.7,469.6 417.7,469.6 417.7,490.8 412.7,490.8 412.7,504.1 451.4,504.1 451.4,490.8 "/>
<polygon fill="none" stroke="#EEEEEE" stroke-width="0.3" stroke-miterlimit="10" points="530.6,458.8 511.8,458.8 498.6,458.8 
	482.6,458.8 482.6,504.1 511.8,504.1 511.8,482.3 530.6,482.3 "/>
<polygon fill="none" stroke="#EEEEEE" stroke-width="0.3" stroke-miterlimit="10" points="617.1,458.8 617.1,461.1 611.8,461.1 
	611.8,482.3 648.6,482.3 648.6,458.8 "/>
<polygon fill="none" stroke="#EEEEEE" stroke-width="0.3" stroke-miterlimit="10" points="689.3,430.1 689.3,466.8 701.5,466.8 
	701.5,482.3 709,482.3 709,430.1 "/>
<polygon fill="none" stroke="#EEEEEE" stroke-width="0.3" stroke-miterlimit="10" points="738.8,477.2 748.7,477.2 748.7,430.1 
	729.8,430.1 729.8,482.3 738.8,482.3 "/>
<polygon fill="none" stroke="#EEEEEE" stroke-width="0.3" stroke-miterlimit="10" points="774.6,430.1 774.6,431.9 769.4,431.9 
	769.4,482.3 788.3,482.3 788.3,430.1 "/>
<polygon fill="none" stroke="#EEEEEE" stroke-width="0.3" stroke-miterlimit="10" points="836.4,462.1 835.5,462.1 835.5,430.1 
	809.1,430.1 809.1,482.3 835.5,482.3 835.5,482.3 836.4,482.3 "/>
<polygon fill="none" stroke="#EEEEEE" stroke-width="0.3" stroke-miterlimit="10" points="503.8,419.6 492,419.6 492,405.9 
	494.8,405.9 494.8,397.9 603.3,397.9 603.3,405.9 610.9,405.9 610.9,421.2 531.6,421.2 531.6,405.9 533.5,405.9 533.5,405.1 
	529.7,405.1 529.7,405.9 530.7,405.9 530.7,422.2 550.2,422.2 550.2,439.9 521,439.9 521,430.4 503.8,430.4 "/>
<polygon fill="none" stroke="#EEEEEE" stroke-width="0.3" stroke-miterlimit="10" points="294.7,458.8 294.7,483.3 298.1,483.3 
	298.1,504.1 312.6,504.1 312.6,458.8 "/>
<rect x="264" y="458.8" fill="none" stroke="#EEEEEE" stroke-width="0.3" stroke-miterlimit="10" width="29.9" height="24.5"/>
<path fill="none" stroke="#EEEEEE" stroke-width="0.3" stroke-miterlimit="10" d="M214.5,480.6v23.5h37.8v-46.7c0,0-12.6-3-17.1-5.4
	L214.5,480.6z"/>
<path fill="none" stroke="#EEEEEE" stroke-width="0.3" stroke-miterlimit="10" d="M174.9,504.1h38.7v-23.8l19-26.3l-4.4-2l1.5-2.3
	c0,0-10.3-5.8-12.8-7.6l-1.3,1.9l-17.2,24.7h-23.5V504.1z"/>
<path fill="none" stroke="#EEEEEE" stroke-width="0.3" stroke-miterlimit="10" d="M195.7,422.2c0,0,6.6,7.9,11.3,11.9s8.8,7,8.8,7
	l-1,2.3l-16.9,24.3h-29.6v-5.6h-14.6v-17.4h13.7L195.7,422.2z"/>
<polygon fill="none" stroke="#EEEEEE" stroke-width="0.3" stroke-miterlimit="10" points="104.1,399.3 174.3,399.3 174.3,401.2 
	183,401.2 186.9,409.2 163.1,428.6 121.6,428.6 121.6,419.1 104.1,419.1 "/>
<rect x="104.1" y="379.6" fill="none" stroke="#EEEEEE" stroke-width="0.3" stroke-miterlimit="10" width="69.8" height="17.5"/>
<rect x="104.1" y="360.6" fill="none" stroke="#EEEEEE" stroke-width="0.3" stroke-miterlimit="10" width="69.8" height="18"/>
<rect x="104.1" y="281.3" fill="none" stroke="#EEEEEE" stroke-width="0.3" stroke-miterlimit="10" width="83.8" height="18.9"/>
<rect x="104.1" y="264.6" fill="none" stroke="#EEEEEE" stroke-width="0.3" stroke-miterlimit="10" width="83.8" height="15.8"/>
<polygon fill="none" stroke="#EEEEEE" stroke-width="0.3" stroke-miterlimit="10" points="104.1,242.7 181.1,242.7 187.9,261.1 
	187.9,263.6 104.1,263.6 "/>
<polygon fill="none" stroke="#EEEEEE" stroke-width="0.3" stroke-miterlimit="10" points="104.1,301.2 188,301.2 187.9,309.1 
	182.8,319.2 104.1,319.2 "/>
<polygon fill="none" stroke="#EEEEEE" stroke-width="0.3" stroke-miterlimit="10" points="131.5,320.1 131.5,351.6 120.6,351.6 
	120.6,320.1 104.1,320.1 104.1,359.7 174,359.7 174,320.1 "/>
<polygon fill="none" stroke="#EEEEEE" stroke-width="0.3" stroke-miterlimit="10" points="121.6,220.9 167.3,220.9 168.4,223.8 
	174.4,223.9 180.9,241.4 121.6,241.7 "/>
<polygon fill="none" stroke="#EEEEEE" stroke-width="0.3" stroke-miterlimit="10" points="104.1,182.2 159.5,182.2 169.7,211.1 
	121.6,211.1 121.6,201.1 104.1,201.1 "/>
<polygon fill="none" stroke="#EEEEEE" stroke-width="0.3" stroke-miterlimit="10" points="104.1,161.6 167.6,161.6 173.2,176.3 
	159.4,181.3 104.1,181.3 "/>
<polygon fill="none" stroke="#EEEEEE" stroke-width="0.3" stroke-miterlimit="10" points="741.1,261.6 769.5,261.6 769.5,314.4 
	751.4,314.4 "/>
<polygon fill="none" stroke="#EEEEEE" stroke-width="0.3" stroke-miterlimit="10" points="729.4,201.1 768.5,201.1 768.5,249.3 
	738.7,249.3 "/>
<polygon fill="none" stroke="#EEEEEE" stroke-width="0.3" stroke-miterlimit="10" points="770.4,261.6 777.3,261.6 777.3,273.8 
	785,273.8 785,314.4 770.4,314.4 "/>
<polygon fill="none" stroke="#EEEEEE" stroke-width="0.3" stroke-miterlimit="10" points="786,273.8 798.7,273.8 798.7,261.6 
	809.1,261.6 809.1,314.4 786,314.4 "/>
<rect x="810" y="261.6" fill="none" stroke="#EEEEEE" stroke-width="0.3" stroke-miterlimit="10" width="18.9" height="52.3"/>
<rect x="829.8" y="261.6" fill="none" stroke="#EEEEEE" stroke-width="0.3" stroke-miterlimit="10" width="18.9" height="52.3"/>
<path fill="none" stroke="#EEEEEE" stroke-width="0.3" stroke-miterlimit="10" d="M852.5,313.9h-2.8v-52.3h33.4v21.8
	C883,300.2,869.4,313.9,852.5,313.9z"/>
<polygon fill="none" stroke="#EEEEEE" stroke-width="0.3" stroke-miterlimit="10" points="810,201.2 810,246.4 815.5,246.4 
	815.5,249.3 842.1,249.3 842.1,201.2 "/>
<rect x="843.1" y="229.4" fill="none" stroke="#EEEEEE" stroke-width="0.3" stroke-miterlimit="10" width="30.2" height="19.9"/>
<polygon fill="none" stroke="#EEEEEE" stroke-width="0.3" stroke-miterlimit="10" points="471.3,201.1 458.5,201.1 458.5,203.1 
	452.4,203.1 452.4,241.7 491,241.7 491,215.8 483.5,215.8 483.5,219.7 471.4,219.7 "/>
<rect x="253.3" y="126.6" fill="none" stroke="#EEEEEE" stroke-width="0.3" stroke-miterlimit="10" width="68.4" height="18.9"/>
<polygon fill="none" stroke="#EEEEEE" stroke-width="0.3" stroke-miterlimit="10" points="292.9,160.6 321.6,160.6 321.6,146.4 
	253.3,146.4 253.3,166.2 292.9,166.2 "/>
<polygon fill="none" stroke="#EEEEEE" stroke-width="0.3" stroke-miterlimit="10" points="319.8,201.3 319.8,195.6 321.7,195.6 
	321.7,179.9 273.5,179.9 273.5,167.2 253.3,167.2 253.3,179.9 248.5,179.9 256.3,201.1 271.4,201.1 271.4,201.3 "/>
<rect x="380.2" y="121.8" fill="none" stroke="#EEEEEE" stroke-width="0.3" stroke-miterlimit="10" width="69.8" height="48"/>
<rect x="457.5" y="121.8" fill="none" stroke="#EEEEEE" stroke-width="0.3" stroke-miterlimit="10" width="72" height="48"/>
<rect x="530.4" y="117.1" fill="none" stroke="#EEEEEE" stroke-width="0.3" stroke-miterlimit="10" width="72" height="52.7"/>
<rect x="626.8" y="117.1" fill="none" stroke="#EEEEEE" stroke-width="0.3" stroke-miterlimit="10" width="61" height="52.7"/>
<rect x="695.2" y="117.1" fill="none" stroke="#EEEEEE" stroke-width="0.3" stroke-miterlimit="10" width="67.6" height="52.7"/>
<rect x="796.5" y="117.1" fill="none" stroke="#EEEEEE" stroke-width="0.3" stroke-miterlimit="10" width="88.1" height="63.2"/>
<rect x="400" y="201.1" fill="none" stroke="#EEEEEE" stroke-width="0.3" stroke-miterlimit="10" width="26" height="40.6"/>
<rect id="XMLID_36642_" x="769.4" y="209.1" fill="none" stroke="#EEEEEE" stroke-width="0.3" stroke-miterlimit="10" width="39.8" height="40.9"/>
<rect id="XMLID_2_" x="104" y="480.6" fill="none" stroke="#EEEEEE" stroke-width="0.3" stroke-miterlimit="10" width="31.3" height="12.3"/>
<rect x="145.7" y="468.8" fill="none" stroke="#EEEEEE" stroke-width="0.3" stroke-miterlimit="10" width="28.2" height="35.3"/>
<path fill="none" stroke="#EEEEEE" stroke-width="0.3" stroke-miterlimit="10" d="M256.6,202.1l66-0.2c0,0-8.5,10.6-14.4,19.7
	c-6.3,9.7-16.1,30.8-18.2,39.5c0,0-8.3-1.2-12.3-1.1L256.6,202.1z"/>
<path fill="#C8C9C9" d="M514.8,507.1H101.2l0.6-347.9h68.1l43.5,119c4.1-3.4,13.9-10.2,32.4-16.3c0.7-0.2,13.9-4,27.8-4
	c0.1,0,0.1,0,0.2,0l-28.2-77.5v-56.6h90.1v-4.7h192v-4.7h359.8v173.1c0,0.4,0.2,11.3-7.7,20.1c-7.9,8.7-16.8,10.1-17.1,10.2
	c-0.1,0-4,0.8-9.6,0.8h-41.6v-1h-79.6V391h159.5v73.4h-4.7v21.3H514.8V507.1z M105.2,503.1h405.6v-21.7h371.8v-21.3h4.7v-65.4H727.8
	v-81.4h87.6v1H853c5.2,0,8.9-0.7,8.9-0.7c0.2,0,8-1.3,14.8-8.9c6.8-7.6,6.7-17.3,6.7-17.4V118.2H531.7v4.7h-192v4.7h-90.2v51.9
	l30,82.4l-3-0.1c-14.4-0.6-29.5,3.7-29.6,3.8c-24.2,7.9-32.9,17.2-33,17.3l-2.2,2.4l-1.1-3.1L167.1,163h-61.3L105.2,503.1z"/>
<g>
	<g id="XMLID_22_">
		<path id="XMLID_23_" fill="#666666" d="M666.7,207.1c2.4-2.6,3.7-6.2,3.3-9.9c-0.7-5.9-5.3-10.6-11.2-11.2
			c-7.7-0.9-14.3,5.1-14.3,12.8c0,3.3,1.3,6.4,3.3,8.6l7.3,9.7c1.1,1.3,3.1,1.3,4,0L666.7,207.1z"/>
	</g>
	<g>
		<path fill="#FFFFFF" d="M663.6,192.4v-0.7h-12.5v0.7h0.7v10.6h-0.7v0.7h12.5v-0.7h-0.7v-10.6H663.6L663.6,192.4z M655,196.4v3.3
			h-0.7v-3.3h-0.7l0.9-1.3l0.9,1.3H655L655,196.4z M662.3,203.1h-4.6v-10.6h4.6V203.1L662.3,203.1z"/>
	</g>
</g>
<g>
	<g id="XMLID_26_">
		<path id="XMLID_29_" fill="#666666" d="M798.9,141.1c2.4-2.6,3.7-6.2,3.3-9.9c-0.7-5.9-5.3-10.6-11.2-11.2
			c-7.7-0.9-14.3,5.1-14.3,12.8c0,3.3,1.3,6.4,3.3,8.6l7.3,9.7c1.1,1.3,3.1,1.3,4,0L798.9,141.1z"/>
	</g>
	<g>
		<path fill="#FFFFFF" d="M795.8,126.6v-0.7h-12.5v0.7h0.7v10.6h-0.7v0.7h12.5v-0.7h-0.7v-10.6H795.8L795.8,126.6z M787.2,130.6v3.3
			h-0.7v-3.3h-0.7l0.9-1.3l0.9,1.3H787.2L787.2,130.6z M794.5,137.1h-4.6v-10.6h4.6V137.1L794.5,137.1z"/>
	</g>
</g>
</svg>
