<?xml version="1.0" encoding="UTF-8"?>
<svg version="1.2" baseProfile="tiny" id="svgRoot" inkscape:version="0.47pre4 " sodipodi:docname="test.svg" xmlns:cc="http://creativecommons.org/ns#" xmlns:dc="http://purl.org/dc/elements/1.1/" xmlns:inkscape="http://www.inkscape.org/namespaces/inkscape" xmlns:rdf="http://www.w3.org/1999/02/22-rdf-syntax-ns#" xmlns:sodipodi="http://sodipodi.sourceforge.net/DTD/sodipodi-0.dtd" xmlns:svg="http://www.w3.org/2000/svg" xmlns="http://www.w3.org/2000/svg" xmlns:xlink="http://www.w3.org/1999/xlink" x="0px" y="0px" viewBox="0 0 800 500" xml:space="preserve">
<defs><style type="text/css" id="svg-legend-style">.default{fill:#a4b5bd;fill-opacity:1;stroke-width:0;stroke:none;stroke-dasharray:none;cursor:default;}.super-market{fill:#f1dcbd;fill-opacity:1;stroke-width:0;stroke:none;stroke-dasharray:none;cursor:default;}.suit{fill:#ffabd4;fill-opacity:1;stroke-width:0;stroke:none;stroke-dasharray:none;cursor:default;}.mating{fill:#b56d00;fill-opacity:1;stroke-width:0;stroke:none;stroke-dasharray:none;cursor:default;}.food{fill:#ffe700;fill-opacity:1;stroke-width:0;stroke:none;stroke-dasharray:none;cursor:default;}.cur-select{fill:#f00;fill-opacity:0.8;stroke-width:5;stroke:#000;stroke-dasharray:12;cursor:default;}</style>
	
	
		<inkscape:perspective id="perspective10" inkscape:persp3d-origin="372.04724 : 350.78739 : 1" inkscape:vp_x="0 : 526.18109 : 1" inkscape:vp_y="0 : 1000 : 0" inkscape:vp_z="744.09448 : 526.18109 : 1" sodipodi:type="inkscape:persp3d">
		</inkscape:perspective>
	
		<inkscape:perspective id="perspective2832" inkscape:persp3d-origin="0.5 : 0.33333333 : 1" inkscape:vp_x="0 : 0.5 : 1" inkscape:vp_y="0 : 1000 : 0" inkscape:vp_z="1 : 0.5 : 1" sodipodi:type="inkscape:persp3d">
		</inkscape:perspective>
</defs>
<sodipodi:namedview bordercolor="#666666" borderopacity="1.0" id="base" inkscape:current-layer="svg2" inkscape:cx="583.1007" inkscape:cy="273.63795" inkscape:document-units="px" inkscape:pageopacity="0.0" inkscape:pageshadow="2" inkscape:window-height="740" inkscape:window-maximized="1" inkscape:window-width="1280" inkscape:window-x="-4" inkscape:window-y="-4" inkscape:zoom="5.6" pagecolor="#ffffff" showgrid="false">
	</sodipodi:namedview>
<polygon fill="#FFFFFF" stroke="#000000" stroke-width="0.25" points="58,270.6 65.4,228.5 68.4,220 74.6,212.8 85,208.1 
	104.9,208.3 104.9,239.4 85,239.4 85,248.9 78.4,248.9 78.4,270.6 "></polygon>
<polygon fill="#FFFFFF" stroke="#000000" stroke-width="0.25" points="117.2,208.3 148.4,208.3 148.4,213 153.1,213 153.1,229 
	144.6,229 144.6,226.2 117.2,226.2 "></polygon>
<polygon fill="#FFFFFF" stroke="#000000" stroke-width="0.25" points="163.5,208.3 176.7,208.3 176.7,217.7 163.5,217.7 "></polygon>
<polygon fill="#FFFFFF" stroke="#000000" stroke-width="0.25" points="181.4,208.3 204.1,208.3 204.1,248.9 185.2,248.9 
	185.2,217.7 181.4,217.7 "></polygon>
<polygon fill="#FFFFFF" stroke="#000000" stroke-width="0.25" points="208.8,208.3 224,208.3 224,248.9 204.1,248.9 204.1,227.2 
	208.8,227.2 "></polygon>
<polygon fill="#FFFFFF" stroke="#000000" stroke-width="0.25" points="224,208.3 264.6,208.3 264.6,223.4 259.9,223.4 259.9,232.8 
	264.6,232.8 264.6,248.9 224,248.9 "></polygon>
<polygon fill="#FFFFFF" stroke="#000000" stroke-width="0.25" points="270.3,208.3 287.3,208.3 287.3,217.7 270.3,217.7 "></polygon>
<polygon fill="#FFFFFF" stroke="#000000" stroke-width="0.25" points="303.4,208.3 322.8,208.3 325.1,213.9 325.1,247.8 
	322.6,247.8 322.6,254.6 317.7,254.6 317.7,251.7 303.4,251.7 303.4,254.6 264.6,254.6 264.6,232.8 283.5,232.8 283.5,228.1 
	292,228.1 292,224.3 299.6,224.3 299.6,229.2 303.4,229.2 "></polygon>
<polygon fill="#FFFFFF" stroke="#000000" stroke-width="0.25" points="339.3,202.2 362.9,182.7 362.9,196 353.1,213.9 362.9,220 
	362.9,228.1 341.2,228.1 341.2,206.9 "></polygon>
<polygon fill="#FFFFFF" stroke="#000000" stroke-width="0.25" points="362.7,182.9 369.1,177.6 375.2,185.6 375.2,196 372.9,201.3 
	362.9,196.2 "></polygon>
<polygon fill="#FFFFFF" stroke="#000000" stroke-width="0.25" points="402.7,149.9 439.8,119.5 442.3,122.3 442.3,163.8 
	422.4,163.8 422.4,154.4 406.5,154.4 "></polygon>
<polygon fill="#FFFFFF" stroke="#000000" stroke-width="0.25" points="439.8,119.5 458.9,103.6 461.4,106.4 442.3,122.4 "></polygon>
<polygon fill="#FFFFFF" stroke="#000000" stroke-width="0.25" points="458.9,103.6 473.2,92 475.9,95 477.7,93.7 482,98.7 
	473.5,98.7 462.8,108 "></polygon>
<polygon fill="#FFFFFF" stroke="#000000" stroke-width="0.25" points="561.4,71.2 638.3,71.2 646.3,72.3 629.8,98.6 581.2,98.6 
	581.2,77.8 561.4,77.8 " class="" data-shopid="shop3" data-shoppos="shop3" data-shopname="shop3"></polygon>
<polygon fill="#FFFFFF" stroke="#000000" stroke-width="0.25" points="671.6,82.9 683.9,92.1 694,104.2 700.5,115.9 706.9,134.5 
	695.6,134.5 695.6,130.8 681.4,130.8 681.4,120.4 649.2,120.4 657.9,102.1 "></polygon>
<polygon fill="#FFFFFF" stroke="#000000" stroke-width="0.25" points="700.3,149.7 707,149.7 709,148.5 712.4,163.8 708.8,163.8 
	708.8,161 700.3,161 "></polygon>
<polygon fill="#FFFFFF" stroke="#000000" stroke-width="0.25" points="695.6,177.1 712.2,177.1 715.2,176.4 719.9,197.9 
	700.3,197.9 700.3,184.6 695.6,184.6 "></polygon>
<polygon fill="#FFFFFF" stroke="#000000" stroke-width="0.25" points="700.3,205.4 721.4,205.4 726.7,228.1 700.3,228.1 "></polygon>
<polygon fill="#FFFFFF" stroke="#000000" stroke-width="0.25" points="681.4,205.4 700.3,205.4 700.3,228.1 681.4,228.1 "></polygon>
<polygon fill="#FFFFFF" stroke="#000000" stroke-width="0.25" points="654,271.6 700.3,271.6 700.3,268.7 715.4,268.7 715.4,271.6 
	726.7,271.6 726.7,268.7 735,268.7 746,322.8 745.3,335.5 741.4,346.4 732.4,361.5 657,299.6 653.6,293.9 651.7,287.4 652.6,278.9 
	" class="" data-shopid="shop7" data-shoppos="shop7" data-shopname="shop7"></polygon>
<polygon fill="#FFFFFF" stroke="#000000" stroke-width="0.25" points="601,328.2 611.6,325.2 620.4,320.7 627.5,319.5 635.4,321.3 
	645.7,327.8 714.2,383.6 700.4,396.3 689.3,402.7 679.8,405.2 669.1,405.5 669.1,396.3 641.7,396.3 641.7,385 627.5,385 
	627.5,369.9 609.6,369.9 609.6,376.5 603.9,376.5 603.9,362.9 601,362.9 "></polygon>
<polygon fill="#FFFFFF" stroke="#000000" stroke-width="0.25" points="601,328.2 593.7,329 586.9,329 580.4,326.7 580.4,333 
	582,333.2 582,336.8 586.9,336.8 586.9,353.8 581.2,353.8 581.2,363 601,362.9 "></polygon>
<polygon fill="#FFFFFF" stroke="#000000" stroke-width="0.25" points="627.5,385 641.7,385 641.7,396.3 669.1,396.3 669.1,405.5 
	620,405.8 620,393.5 627.5,393.5 "></polygon>
<polygon fill="#FFFFFF" stroke="#000000" stroke-width="0.25" points="590.7,400.1 602,400.1 602,405.8 590.7,405.8 "></polygon>
<polygon fill="#FFFFFF" stroke="#000000" stroke-width="0.25" points="541.5,331.1 567.5,325.6 573.6,325.1 573.6,405.8 
	533.9,405.8 533.9,375.5 541.5,375.5 "></polygon>
<polygon fill="#FFFFFF" stroke="#000000" stroke-width="0.25" points="509.4,375.5 533.9,375.5 533.9,405.8 509.4,405.8 "></polygon>
<polygon fill="#FFFFFF" stroke="#000000" stroke-width="0.25" points="481,375.5 509.4,375.5 509.4,405.8 481,405.8 "></polygon>
<polygon fill="#FFFFFF" stroke="#000000" stroke-width="0.25" points="450.8,398.2 463.1,398.2 463.1,405.8 450.8,405.8 "></polygon>
<polygon fill="#FFFFFF" stroke="#000000" stroke-width="0.25" points="381.1,354.9 382.7,352.6 385.8,349.1 391.8,346.4 
	400.8,340.6 442.3,340.6 442.3,354.7 463.1,354.7 463.1,373.6 447.9,373.6 447.9,376.6 442.3,376.6 442.3,390.7 437.7,390.7 
	437.7,398.2 442.2,398.2 442.2,405.8 381.1,405.8 "></polygon>
<polygon fill="#FFFFFF" stroke="#000000" stroke-width="0.25" points="303.4,331.2 337.5,333.1 347.8,342.6 356.3,348 359.9,349.3 
	364.8,354.7 364.8,405.8 296.7,405.8 296.7,393.8 303.4,381.7 300.4,379.6 303.4,374.5 "></polygon>
<polygon fill="#FFFFFF" stroke="#000000" stroke-width="0.25" points="242.9,398.2 256.1,398.2 256.1,405.8 242.9,405.8 "></polygon>
<polygon fill="#FFFFFF" stroke="#000000" stroke-width="0.25" points="184.3,375.4 228.7,375.4 228.7,397.2 226,397.2 226,405.8 
	185.5,402.2 185.5,397.4 184.3,396.9 "></polygon>
<polygon fill="#FFFFFF" stroke="#000000" stroke-width="0.25" points="152.1,390.7 172,390.7 171.9,400.8 152.1,399 "></polygon>
<polygon fill="#FFFFFF" stroke="#000000" stroke-width="0.25" points="66.3,385.2 71.3,380.6 70.4,379 93,361.4 105.1,376.5 
	124.5,376.5 124.5,379.4 139.4,379.4 139.4,381.2 145.5,381.2 145.5,398.2 82,393.3 72.8,390.8 "></polygon>
<polygon fill="#FFFFFF" stroke="#000000" stroke-width="0.25" points="47.1,333 74.5,333 80.6,340.6 55.9,359.7 54.2,357.9 
	48.7,361.8 46.1,357.1 44.9,352.3 45.1,343.2 "></polygon>
<polygon fill="#FFFFFF" stroke="#000000" stroke-width="0.25" points="52,304.7 59.4,304.7 59.4,311.3 65.1,311.3 65.1,314.1 
	75.6,314.1 74.6,333 47.1,333 "></polygon>
<polygon fill="#FFFFFF" stroke="#000000" stroke-width="0.25" points="104.9,226.1 144.6,226.2 144.6,229 185.2,229 185.2,267.8 
	175.9,280.2 157.9,267 144.6,264.8 136.4,264.7 121.7,270.6 112.8,270.6 109.6,268.5 109.6,239.3 104.9,239.4 "></polygon>
<polygon fill="#FFFFFF" stroke="#000000" stroke-width="0.25" points="185.2,248.9 204.1,248.9 204.1,293.4 194.3,294.7 
	189.5,294.3 185.2,291.9 175.9,280.2 185.1,268 "></polygon>
<polygon fill="#FFFFFF" stroke="#000000" stroke-width="0.25" points="204.1,248.9 224,248.9 224,290.6 204.1,293.4 "></polygon>
<polygon fill="#FFFFFF" stroke="#000000" stroke-width="0.25" points="224,248.9 243.8,248.9 243.8,288.4 224,290.6 "></polygon>
<polygon fill="#FFFFFF" stroke="#000000" stroke-width="0.25" points="243.8,248.9 264.6,248.9 264.6,286.5 243.8,288.4 "></polygon>
<polygon fill="#FFFFFF" stroke="#000000" stroke-width="0.25" points="264.6,254.6 295.8,254.6 295.8,283.5 264.6,286.5 "></polygon>
<polygon fill="#FFFFFF" stroke="#000000" stroke-width="0.25" points="302.4,267.8 315.6,267.8 315.6,276.3 324.5,276.3 
	324.1,280.4 321.8,282.9 302.4,283.4 "></polygon>
<polygon fill="#FFFFFF" stroke="#000000" stroke-width="0.25" points="341.2,228.1 362.9,228.1 362.9,220.1 377.8,227.4 
	382.7,227.3 382.7,233.8 424.3,233.8 424.3,292.7 412,292.4 403.3,288.1 395.9,280.3 387.9,275.4 382.6,273.7 373.4,272.3 
	362.9,273.2 355.7,276.2 351.3,279 346.9,278.8 341.2,273.7 " class="" data-shopid="shop2" data-shoppos="shop2" data-shopname="shop2"></polygon>
<polygon fill="#FFFFFF" stroke="#000000" stroke-width="0.25" points="424.3,233.8 462.1,233.8 462.1,294.3 424.3,292.7 " class="" data-shopid="shop5" data-shoppos="shop5" data-shopname="shop5"></polygon>
<polygon fill="#FFFFFF" stroke="#000000" stroke-width="0.25" points="462.1,233.8 507.5,233.8 507.5,247.1 494.3,247.1 
	494.3,294.3 462.1,294.3 " class="" data-shopid="shop6" data-shoppos="shop6" data-shopname="shop6"></polygon>
<polygon fill="#FFFFFF" stroke="#000000" stroke-width="0.25" points="500.9,276.3 514.1,276.3 514.1,294.3 500.9,294.3 "></polygon>
<polygon fill="#FFFFFF" stroke="#000000" stroke-width="0.25" points="507.5,233.8 588.1,233.8 590.3,237.1 581.7,244.4 
	571.8,255.6 564.4,269.7 560.8,280.4 559.7,287.8 557.5,291.7 521.7,294.1 521.7,250.8 516,250.8 516,247 507.5,247.1 " class="" data-shopid="shop4" data-shoppos="shop4" data-shopname="shop4"></polygon>
<polygon fill="#FFFFFF" stroke="#000000" stroke-width="0.25" points="473.5,98.6 496.1,98.9 496.1,106.2 521.7,106.2 521.7,98.6 
	533.9,98.6 533.9,71.2 561.4,71.2 561.4,77.7 581.2,77.8 581.2,98.6 629.8,98.6 616.9,125.9 609.4,149.4 606.2,164.1 603.6,184.6 
	602.8,219.6 587.8,219.6 587.8,204.5 561.4,204.5 561.4,227.2 425.1,227.2 425,225.5 421.5,225.5 421.5,191.2 442.3,191.2 
	442.3,184.6 432.8,184.6 432.8,163.8 442.3,163.8 442.3,122.5 461.4,106.4 463,108 " class="" data-shopid="shop1" data-shoppos="shop1" data-shopname="shop1"></polygon>
<polygon fill="#FFFFFF" stroke="#000000" stroke-width="0.25" points="649.2,120.4 681.4,120.4 681.4,184.6 663.4,184.6 
	663.4,162.9 633.4,162.9 640.9,138.2 "></polygon>
<polygon fill="#FFFFFF" stroke="#000000" stroke-width="0.25" points="633.5,162.9 663.4,162.9 663.4,184.6 629.9,184.6 "></polygon>
<polygon fill="#FFFFFF" stroke="#000000" stroke-width="0.25" points="629.9,184.5 681.4,184.6 681.4,205.4 628.8,205.5 "></polygon>
<polygon fill="#FFFFFF" stroke="#000000" stroke-width="0.25" points="628.9,205.5 660.6,205.4 660.6,225.3 631.6,225.3 
	628.5,222.2 "></polygon>
<polygon fill="#FFFFFF" stroke="#000000" stroke-width="0.25" points="657.9,258.3 675.1,258.3 675.1,265.9 673.2,265.9 
	673.2,271.6 654,271.6 654.9,260.8 "></polygon>
<polygon fill="#FFFFFF" stroke="#000000" stroke-width="0.25" points="521.7,334.1 541.5,331.2 541.5,375.5 521.7,375.5 "></polygon>
<polygon fill="#FFFFFF" stroke="#000000" stroke-width="0.25" points="501.8,336.7 521.7,334.1 521.7,375.5 501.8,375.5 "></polygon>
<polygon fill="#FFFFFF" stroke="#000000" stroke-width="0.25" points="481,338.9 501.8,336.7 501.8,375.5 481,375.5 "></polygon>
<polygon fill="#FFFFFF" stroke="#000000" stroke-width="0.25" points="463.1,339.9 475.4,338.6 475.4,376.5 463.1,376.5 "></polygon>
<polygon fill="#FFFFFF" stroke="#000000" stroke-width="0.25" points="442.3,340.6 463.1,339.9 463.1,354.7 442.3,354.7 "></polygon>
<polygon fill="#FFFFFF" stroke="#000000" stroke-width="0.25" points="283.5,330.6 303.4,331.2 303.4,374.6 300.4,379.6 281,369.5 
	283.5,365.3 "></polygon>
<polygon fill="#FFFFFF" stroke="#000000" stroke-width="0.25" points="263.7,330.5 283.5,330.6 283.5,365.1 281.9,368 274.8,363.6 
	271.5,369.9 263.7,369.9 "></polygon>
<polygon fill="#FFFFFF" stroke="#000000" stroke-width="0.25" points="249.5,330.5 263.7,330.5 263.7,372.7 248.1,372.7 
	248.1,368.3 249.5,367.9 "></polygon>
<polygon fill="#FFFFFF" stroke="#000000" stroke-width="0.25" points="234.4,331.1 249.5,330.4 249.5,367.7 248.1,368.3 
	248.1,372.6 243.8,372.6 244,376.5 234.4,376.5 "></polygon>
<polygon fill="#FFFFFF" stroke="#000000" stroke-width="0.25" points="204.1,332.4 215.9,331.2 228.7,331.1 228.7,375.5 
	204.1,375.5 "></polygon>
<polygon fill="#FFFFFF" stroke="#000000" stroke-width="0.25" points="184.3,334.9 194,332.5 204.1,332.4 204.1,364.2 184.3,364.2 
	"></polygon>
<polygon fill="#FFFFFF" stroke="#000000" stroke-width="0.25" points="164.4,344.8 173.3,340.1 184.3,334.9 184.3,377.4 
	164.4,377.4 "></polygon>
<polygon fill="#FFFFFF" stroke="#000000" stroke-width="0.25" points="144.6,345.2 153.6,346.6 164.3,344.8 164.4,372.7 
	144.6,372.7 "></polygon>
<polygon fill="#FFFFFF" stroke="#000000" stroke-width="0.25" points="122.6,339.6 132.2,339.6 138.1,342.7 144.6,345.3 
	144.6,372.7 135.1,372.7 135.1,376.5 124.5,376.5 124.7,343 "></polygon>
<polygon fill="#FFFFFF" stroke="#000000" stroke-width="0.25" points="106.5,351.3 122.6,339.6 124.7,343 124.5,376.5 112.9,376.5 
	112.9,359.5 "></polygon>
<polygon fill="#FFFFFF" stroke="#000000" stroke-width="0.25" points="93,361.5 106.5,351.3 113,359.6 112.9,376.4 105.1,376.5 "></polygon>
<polygon fill="#FFFFFF" stroke="#000000" stroke-width="0.25" points="75.6,314.1 85,314.2 95.7,328.5 80.6,340.7 74.6,333.1 "></polygon>
<polygon fill="#FFFFFF" stroke="#000000" stroke-width="0.25" points="84.9,314.2 85,311.3 90.7,311.3 90.7,300.9 102.1,300.9 
	102.1,311.3 104.7,311.3 108.9,318.4 95.6,328.6 "></polygon>
<desc>Created with Snap</desc>
</svg>